<?xml version="1.0" encoding="utf-8"?>
<!-- Generator: Adobe Illustrator 18.1.1, SVG Export Plug-In . SVG Version: 6.00 Build 0)  -->
<svg version="1.1" baseProfile="basic" id="Слой_1" xmlns:x="&ns_extend;" xmlns:i="&ns_ai;" xmlns:graph="&ns_graphs;"
	 xmlns="http://www.w3.org/2000/svg" xmlns:xlink="http://www.w3.org/1999/xlink" x="0px" y="0px" viewBox="0 0 230 70"
	 xml:space="preserve">  
<metadata>
	<sfw  xmlns="&ns_sfw;">
		<slices></slices>
		<sliceSourceBounds  width="230.1000061" height="109.3483429" y="-109.2983475" x="-0.0499996" bottomLeftOrigin="true">
			</sliceSourceBounds>
	</sfw>
</metadata>
<defs>
<pattern id="hatch5_45" width="5" height="5" patternUnits="userSpaceOnUse">
    <line class="lt2_025 " x1="0" y1="3.5" x2="0.5" y2="3" />
    <line class="lt2_025 " x1="1" y1="2.5" x2="3" y2="0.5" />
</pattern>
<pattern id="hatch1_30" width="34" height="20" patternUnits="userSpaceOnUse">
    <line class="lt2_025 " x1="2" y1="20" x2="34" y2="1" />
    <line class="lt2_025 " x1="-1" y1="2" x2="3" y2="-1" />
</pattern>
    </defs>
<rect id="rect1" x="131.7148438" y="12.8961887" fill="url(#hatch5_45)"  stroke="#000000" stroke-width="0.1" stroke-miterlimit="10" width="98.2851486" height="36.751133"/>
<rect id="rect2" y="12.8961887" fill="url(#hatch5_45)" stroke="#000000" stroke-width="0.1" stroke-miterlimit="10" width="98.2851486" height="36.751133"/>
<g id="HATCH">
	
		<polygon fill-rule="evenodd" clip-rule="evenodd" fill="#7F7F7F" stroke="#282828" stroke-width="0.1" stroke-miterlimit="10" points="0.0000004,12.9083042 98.2851486,12.9083042 98.2851486,8.9365187 0.0000004,8.9365187"/>
</g>
<g id="HATCH_3_">
	<polygon fill-rule="evenodd" clip-rule="evenodd" fill="#282828" points="121.911438,9.9331465 121.1229172,5.4612055 121.1229172,3.2270761 121.217247,3.0323093 121.3711548,2.9788396 121.6193848,2.9788396 125.5911713,2.9788396 125.5911713,4.4682593 126.0876465,4.9647326 126.0876465,9.432992 126.5841217,9.9294643 127.5770645,9.9294643 128.0735474,9.432992 128.0735474,8.9365187 129.5629578,6.3567677 129.5629578,5.3638215 128.5700073,5.3638215 128.0735474,6.2237382 128.0735474,4.9647326 128.5700073,4.4682593 128.5700073,2.9788396 128.5700073,2.730603 129.5629578,2.730603 129.811203,2.4823663 129.811203,0.0000002 119.3852615,0.0032307 119.1370239,2.4855969 118.9483643,2.8751307 118.6405487,2.98207 118.2510147,2.7934103 118.1440735,2.4855969 117.8958359,0.0032307 115.1652374,0.0000002 112.4346313,0.0032307 112.1863937,2.4855969 111.9977341,2.8751307 111.6899261,2.98207 111.3003922,2.7934103 111.1934509,2.4855969 110.9452133,0.0032307 100.5192795,0.0000002 100.5192795,2.4823663 100.7675095,2.730603 101.7604599,2.730603 101.7604599,2.9788396 101.7604599,4.4682593 102.2569351,4.9647326 102.2569351,6.2237382 101.7604599,5.3638215 100.7675095,5.3638215 100.7675095,6.3567677 102.2569351,8.9365187 102.2569351,9.432992 102.7534027,9.9294643 103.7463531,9.9294643 104.2428284,9.432992 104.2428284,4.9647326 104.739296,4.4682593 104.739296,2.9788396 108.9593201,2.9788396 109.1540909,3.0731695 109.2075577,3.2270761 109.2075577,5.4612055 108.4192505,9.9319134 112.3991394,9.9331465 113.1793442,5.9576788 113.9339828,4.3995438 115.1652374,3.971786 116.7233734,4.7264252 117.1511307,5.9576788 117.9313354,9.9331465 121.911438,9.9331465"/>
</g>
<g id="HATCH_4_">
	
		<polygon fill-rule="evenodd" clip-rule="evenodd" fill="#7F7F7F" stroke="#282828" stroke-width="0.1" stroke-miterlimit="10" points="230,8.9365187 132.0453186,8.9365187 132.0453186,12.9083042 230,12.9083042 230,8.9365187"/>
</g>
<g id="HATCH_8_">
	
		<polygon fill-rule="evenodd" clip-rule="evenodd" fill="#FFAD5B" stroke="#282828" stroke-width="0.1" stroke-miterlimit="10" points="98.2851486,0.0000002 0.0000004,0.0000002 0.0000004,8.9365187 98.2851486,8.9365187 98.2851486,0.0000002"/>
</g>
<g id="HATCH_9_">
	
		<polygon fill-rule="evenodd" clip-rule="evenodd" fill="#FFAD5B" stroke="#282828" stroke-width="0.1" stroke-miterlimit="10" points="230,0.0000002 132.0453186,0.0000002 132.0453186,8.9365187 230,8.9365187 230,0.0000002"/>
</g>
<g id="LWPOLYLINE">
	
		<polygon fill="#fff" stroke="#000000" stroke-width="0.1" stroke-linecap="round" stroke-linejoin="round" stroke-miterlimit="10" points="100.2710419,49.6473236 100.2710419,16.9459248 102.2569351,14.8941975 106.7251892,10.4259377 106.7251892,9.9294643 106.7251892,4.9647326 108.7110825,4.9647326 108.7110825,2.9788396 104.739296,2.9788396 104.739296,9.9294643 103.3350601,11.333703 101.7604599,11.333703 100.2710419,8.9365187 100.2710419,4.9647326 101.7604599,4.9647326 101.7604599,2.9788396 100.2710419,2.9788396 100.2710419,0.0000002 98.2851486,0.0000002 98.2851486,12.9083042 98.2851486,47.6614304 36.7224655,47.6614304 36.7224655,49.6473236"/>
</g>
<g id="LWPOLYLINE_5_">
	
		<polygon fill="#FFFFFF" stroke="#000000" stroke-width="0.1" stroke-linecap="round" stroke-linejoin="round" stroke-miterlimit="10" points="130.059433,49.6473236 130.059433,16.9459248 128.0735474,14.8941975 123.605278,10.4259377 123.605278,9.9294643 123.605278,4.9647326 121.6193848,4.9647326 121.6193848,2.9788396 125.5911713,2.9788396 125.5911713,9.9294643 126.9954147,11.333703 128.5700073,11.333703 130.059433,8.9365187 130.059433,4.9647326 128.5700073,4.9647326 128.5700073,2.9788396 130.059433,2.9788396 130.059433,0.0000002 132.0453186,0.0000002 132.0453186,12.9083042 132.0453186,47.6614304 193.6080017,47.6614304 193.6080017,49.6473236"/>
</g>
<g>
	<path fill="#FFFFFF" stroke="#000000" stroke-width="0.25" stroke-miterlimit="10" d="M183.9099731,43.6896362
		c-0.9852295,0-1.9603271,0.199585-2.866333,0.586731v3.3850708h2.866333h2.866394v-3.3850708
		C185.8703613,43.8892212,184.8952637,43.6896362,183.9099731,43.6896362z"/>
	<path fill="#FFFFFF" stroke="#000000" stroke-width="0.25" stroke-miterlimit="10" d="M178.6853638,43.9830322
		c0.7659302-0.4269409,1.7202759-0.3082275,2.3582764,0.293335c0.9060059-0.387146,1.8811035-0.586731,2.866333-0.586731h-4.7164917
		l-1.0162354,0.586731v3.3850708h2.866394v-3.3850708C180.4056396,43.6748047,179.4512939,43.5560913,178.6853638,43.9830322z"/>
	<path fill="#FFFFFF" stroke="#000000" stroke-width="0.25" stroke-miterlimit="10" d="M188.6265259,43.6896362h-4.7165527
		c0.9852905,0,1.9603882,0.199585,2.866394,0.586731c0.6380005-0.6015625,1.5923462-0.7202759,2.3582764-0.293335
		c-0.7659302-0.4269409-1.7202759-0.3082275-2.3582764,0.293335v3.3850708h2.866394v-3.3850708L188.6265259,43.6896362z"/>
</g>
<rect id="rect3" y="49.6473198" fill="#C0C0C0" stroke="#000000" stroke-width="0.1" stroke-miterlimit="10" width="100.2710419" height="30"/>
<rect id="rect4" x="130.0917969" y="49.6473198" fill="#C0C0C0" stroke="#000000" stroke-width="0.1" stroke-miterlimit="10" width="99.9082031" height="30"/>
<g>
	<path fill="#FFFFFF" stroke="#000000" stroke-width="0.25" stroke-miterlimit="10" d="M41.6352539,43.8587646
		c0.7659302-0.4269409,1.7202148-0.3082275,2.3582153,0.293335c0.9060669-0.387146,1.8811035-0.586731,2.866394-0.586731h-4.7164917
		l-1.0162964,0.586731v3.3850708h2.866394v-3.3850708C43.3554688,43.5505371,42.4011841,43.4318237,41.6352539,43.8587646z"/>
	<path fill="#FFFFFF" stroke="#000000" stroke-width="0.25" stroke-miterlimit="10" d="M46.8598633,43.5653687
		c-0.9852905,0-1.9603271,0.199585-2.866394,0.586731v3.3850708h2.866394h2.866394v-3.3850708
		C48.8202515,43.7649536,47.8451538,43.5653687,46.8598633,43.5653687z"/>
	<path fill="#FFFFFF" stroke="#000000" stroke-width="0.25" stroke-miterlimit="10" d="M51.576355,43.5653687h-4.7164917
		c0.9852905,0,1.9603882,0.199585,2.866394,0.586731c0.6380005-0.6015625,1.5922852-0.7202759,2.3582764-0.293335
		c-0.7659912-0.4269409-1.7202759-0.3082275-2.3582764,0.293335v3.3850708h2.866394v-3.3850708L51.576355,43.5653687z"/>
</g>

</svg>
