<?xml version="1.0" encoding="utf-8"?>
<!-- Generator: Adobe Illustrator 18.1.1, SVG Export Plug-In . SVG Version: 6.00 Build 0)  -->
<svg version="1.1" id="Слой_1" xmlns:x="&ns_extend;" xmlns:i="&ns_ai;" xmlns:graph="&ns_graphs;"
	 xmlns="http://www.w3.org/2000/svg" xmlns:xlink="http://www.w3.org/1999/xlink" x="0px" y="0px"
	 viewBox="0 0 438.5376587 438.5544739" enable-background="new 0 0 438.5376587 438.5544739" xml:space="preserve">
<metadata>
	<sfw  xmlns="&ns_sfw;">
		<slices></slices>
		<sliceSourceBounds  height="445.8397217" width="446.1086731" y="-298.0678101" x="-107.1765671" bottomLeftOrigin="true">
			</sliceSourceBounds>
	</sfw>
</metadata>
<g id="all_prd">
<g>
	<defs>
		<circle id="SVGID_1_" cx="219.1475067" cy="219.1969757" r="219.4738312"/>
	</defs>
	<clipPath id="SVGID_2_">
		<use xlink:href="#SVGID_1_"  overflow="visible"/>
	</clipPath>
	<g clip-path="url(#SVGID_2_)">
		<path fill="#40BFEF" id="hydro_s" d="M431.9093628,149.6021881l-0.1169434,0.0383301
			c0.0009766,0.0030518,0.0021362,0.0060425,0.0031128,0.0090942l-211.1738281,69.9486084l130.7643433,179.9817047
			c-0.0230713,0.0167847-0.0465698,0.0328979-0.0696411,0.0496826l0.0443726,0.060791
			c36.8522339-26.873291,65.8510132-65.222168,80.9037476-111.9581299
			C447.3173218,240.9962921,446.1506348,192.9317169,431.9093628,149.6021881z"/>
		<path id="heavy_s" fill="#3BAB4F" d="M220.5200195,218.2585602l0.000061,0.000061l-0.000061,0.000061l-0.369751,0.5192871l0.5959473,0.8202515
			l211.1738281-69.9486084c-0.0009766-0.0030518-0.0021362-0.0060425-0.0031128-0.0090942
			c-14.3068237-43.3045578-41.9396973-82.6447067-81.8237915-111.276062
			C310.2061768,9.7310371,264.0906982-3.8677177,218.4818115-3.5701103l0.0595093,10.4389038l1.44104,211.2207642
			L220.5200195,218.2585602z"/>
		<path fill="#F5DC17" id="standart_s" d="M219.9823608,218.0895538l-1.44104-211.2207642l-0.071228-10.4437256
			C172.8610229-3.3012505,126.919487,10.8740425,87.3943405,40.0047798
			C48.1961632,68.8945541,21.1874352,108.168541,7.3195753,151.2301178L219.9823608,218.0895538z"/>
		<path fill="#543D90" id="decor_s" d="M220.140625,218.7647858h0.000061l0.000061,0.000061l0.0095215,0.0131226l0.369751-0.5192871
			l0.000061-0.000061l-0.000061-0.000061l-0.5376587-0.1690063L7.3195753,151.2301178l-0.010437-0.0032959
			c-0.0544434,0.1726685-0.1044312,0.3468628-0.1584473,0.5196533c-0.0585938,0.1873169-0.1136475,0.3758545-0.1716919,0.5632935
			c-13.3858643,43.2138672-13.8396606,90.8762817,1.649292,137.0413361
			c15.3734751,45.8208008,44.1657715,83.3436279,80.5192261,109.7103882L220.140625,218.7647858z"/>
		<path fill="#CC3717" id="metall_s" d="M220.7462158,219.5982208l-0.5959473-0.8202515l-0.0095215-0.0131226l-0.000061-0.000061h-0.000061
			L89.1475143,399.0614929l-0.3766479,0.5184326c36.8771362,26.8391113,82.2695389,42.6848755,131.369812,42.6848755
			c49.0695801,0,94.4355469-15.8266602,131.3002319-42.6351929c0.0230713-0.0167847,0.0465698-0.0328979,0.0696411-0.0496826
			L220.7462158,219.5982208z"/>
	</g>
	<polygon clip-path="url(#SVGID_2_)"  fill="none" stroke="#FFFFFF" stroke-width="6" stroke-miterlimit="10" points="
		217.621582,217.5564728 217.621582,217.5564117 217.621521,217.5564728 	"/>
	<path clip-path="url(#SVGID_2_)" fill="none" d="M217.6216431,218.5036163h-0.000061h-0.000061L111.8979416,364.0197449
		c29.6779251,21.5995483,66.2088089,34.3518677,105.7236404,34.3518677s76.0457153-12.7523193,105.7236328-34.3518677
		L217.6216431,218.5036163z"/>
	
		<line clip-path="url(#SVGID_2_)" fill="none" stroke="#FFFFFF" stroke-width="7" stroke-miterlimit="10" x1="218.4818115" y1="-3.5701103" x2="218.4818115" y2="337.056488"/>
	
		<line clip-path="url(#SVGID_2_)" fill="none" stroke="#FFFFFF" stroke-width="7" stroke-miterlimit="10" x1="432.2557678" y1="150.860199" x2="106.7247467" y2="251.1399689"/>
	
		<line clip-path="url(#SVGID_2_)" fill="none" stroke="#FFFFFF" stroke-width="7" stroke-miterlimit="10" x1="432.2557678" y1="150.860199" x2="106.7247467" y2="251.1399689"/>
	
		<line clip-path="url(#SVGID_2_)" fill="none" stroke="#FFFFFF" stroke-width="7" stroke-miterlimit="10" x1="351.5105591" y1="399.2740784" x2="144.2521667" y2="128.9586639"/>
	
		<line clip-path="url(#SVGID_2_)" fill="none" stroke="#FFFFFF" stroke-width="7" stroke-miterlimit="10" x1="88.7708664" y1="398.3716125" x2="296.5431213" y2="128.4509277"/>
	
		<line clip-path="url(#SVGID_2_)" fill="none" stroke="#FFFFFF" stroke-width="7" stroke-miterlimit="10" x1="331.6082764" y1="252.5631104" x2="6.9677076" y2="149.4370728"/>
	<circle clip-path="url(#SVGID_2_)" id="cicle_prd" fill="#F5DC17" cx="219.1475067" cy="218.5036316" r="169.1045074"/>
</g>
<g>
	<circle fill="none" cx="220.209259" cy="219.5036316" r="180.7696228"/>
	<path fill="#FFFFFF" d="M63.177784,131.2467804c-2.8300781,5.0322266-7.1674805,7.0615234-12.199707,4.2314453l1.4472656-2.5751953
		c3.043457,1.7109375,6.1816406,0.8574219,8.4516602-3.1806641c2.0727539-3.6874924,1.6850586-6.2148361-0.6557617-7.5322189
		c-1.6674805-0.9384766-3.4418945-0.3173828-5.6572266,1.9794922l-4.3828125,4.5068283
		c-2.3105469,2.3974609-4.7216797,2.8505859-7.3261719,1.3867188c-3.862793-2.1718674-4.8081055-6.5156174-2.175293-11.197258
		c2.7631836-4.9160156,6.8208008-6.4472656,11.0053711-4.09375l-1.4487305,2.5742188
		c-2.7792969-1.5625-5.4155273-0.5039063-7.3242188,2.890625c-1.612793,2.8671875-1.0727539,5.6738281,1.0927734,6.8916016
		c1.6376953,0.9208908,3.0136719,0.4619141,5.1337891-1.7333984l4.4448242-4.5488281
		c2.4189453-2.453125,5.2709961-3.0058594,7.9042969-1.5253906
		C65.2910614,121.4596786,66.2212372,125.8337021,63.177784,131.2467804z"/>
	<path fill="#FFFFFF" d="M56.5776863,100.2995224l17.6508751,12.65625l-1.8193359,2.5371094l-17.6503868-12.65625
		l-4.6953125,6.546875l-2.2368164-1.6035156L59.0166512,92.175499l2.2368164,1.6035156L56.5776863,100.2995224z"/>
	<path fill="#FFFFFF" d="M89.0996552,94.9118271l-7.1879883-2.9521484l-6.2167969,7.09375l3.824707,6.7890625l-2.1904297,2.4990234
		L64.6782684,85.6491318l2.6547852-3.0292969l24.0668945,9.6669922L89.0996552,94.9118271z M68.5083466,86.371788
		l5.7255859,10.3759766l5.1337891-5.8574219L68.5083466,86.371788z"/>
	<path fill="#FFFFFF" d="M104.8369598,80.2594833l-22.6347656-6.4335938l13.1713867,14.8359375l-2.2094727,1.9609375
		l-16.246582-18.3007813l2.5356445-2.25l22.8466797,6.4707031L89.0171356,61.5807686l2.2089844-1.9609375l16.246582,18.2998085
		L104.8369598,80.2594833z"/>
	<path fill="#FFFFFF" d="M119.1846161,69.6208115l-7.8081055,5.2958984L97.6362762,54.6588936l7.8081055-5.2958984
		c5.1401367-3.4863281,10.8535156-1.7626953,15.1132813,4.5166016
		C124.8364716,60.1872139,124.2969208,66.1520615,119.1846161,69.6208115z M106.5449677,51.9440498l-4.7792969,3.2412109
		l10.6494141,15.6992226l4.7797852-3.2421875c4.0009766-2.7138672,4.265625-6.8681679,0.7973633-11.9814491
		C114.4863739,50.492878,110.5459442,49.2292061,106.5449677,51.9440498z"/>
	<path fill="#FFFFFF" d="M143.7065887,55.5475655l-5.6152344-5.3730469l-8.3774414,4.3359375l1.0825195,7.7167969
		l-2.9506836,1.5273438l-3.4951172-25.7441406l3.5771484-1.8525391l18.8789063,17.7841797L143.7065887,55.5475655z
		 M127.6528778,40.079792l1.5439453,11.75l6.9160156-3.5791016L127.6528778,40.079792z"/>
	<path fill="#FFFFFF" d="M164.4907684,47.3688545c-0.7563477-0.7949219-1.5483398-2.078125-2.0366211-3.5078125
		l-0.7202148-2.0595703c-1.0083008-2.8476563-2.699707-3.6572266-5.2836914-2.7109375l-7.5629883,2.7744141l3.628418,9.8955078
		l-2.9306641,1.0742188l-8.4248047-22.9726563l10.5888672-3.8837891c4.5063477-1.6513672,7.793457-0.3916016,9.2490234,3.5800781
		c0.9589844,2.6152344,0.5087891,4.6044922-1.612793,6.8125c2.8823242,0.1582031,3.8657227,1.0849609,5.3154297,4.84375
		c1.1518555,3.0449219,1.7050781,3.7714844,3.0854492,4.1240234l0.2651367,0.7246094L164.4907684,47.3688545z
		 M152.128952,28.7711983l-7.090332,2.5996094l2.9003906,7.9101563l7.090332-2.6005859
		c3.1206055-1.1445313,4.0561523-2.8808594,3.0625-5.5917969C157.1440887,28.5045967,155.4067841,27.5690498,152.128952,28.7711983z
		"/>
	<path fill="#FFFFFF" d="M174.6196747,22.1930733l5.043457,21.1230469l-3.0356445,0.7255859l-5.0439453-21.1230469
		l-7.8354492,1.8710938l-0.6391602-2.6777344l18.6743164-4.4589844l0.6391602,2.6777344L174.6196747,22.1930733z"/>
	<path fill="#FFFFFF" d="M294.4307251,54.4792061l4.2138672-10.3144531l-11.6523438-4.7587891l-4.2128906,10.3144531
		l-2.8896484-1.1787109l9.2509766-22.6523438l2.8896484,1.1816406l-3.9980469,9.7861328l11.6523438,4.7587891l3.9970703-9.7871094
		l2.8896484,1.1796875l-9.2509766,22.6513672L294.4307251,54.4792061z"/>
	<path fill="#FFFFFF" d="M301.8203735,57.9254951l12.0166016-21.3193359l14.7685547,8.3232422l-1.3515625,2.3994141
		l-12.0488281-6.7929688l-3.8408203,6.8154297l11.6103516,6.5439453l-1.3525391,2.3974609l-11.609375-6.5449219l-4.1210938,7.3125
		l12.5751953,7.0878944l-1.3515625,2.3974609L301.8203735,57.9254951z"/>
	<path fill="#FFFFFF" d="M333.0479126,78.0358505l2.3242188-7.4130859l-7.5986328-5.5839844l-6.4345703,4.3925781
		l-2.6777344-1.96875l21.5185547-14.5478554l3.2451172,2.3857422l-7.5644531,24.8017616L333.0479126,78.0358505z
		 M339.788147,56.7936592l-9.8427734,6.5917969l6.2744141,4.6113319L339.788147,56.7936592z"/>
	<path fill="#FFFFFF" d="M343.6201782,87.340538l-2.4785156-2.2646484l10.0097656-23.9960976l2.4785156,2.2636719
		l-8.6640625,20.1347694l18.9726563-10.7177734l2.4541016,2.2412109L343.6201782,87.340538z"/>
	<path fill="#FFFFFF" d="M365.7871704,96.7360458l-7.2734375,6.2626953l-2.0361328-2.3642578l7.2734375-6.2626953
		l5.1132813-16.8466797l2.5185547,2.9248047l-4.3427734,13.2148438l13.5830078-2.4824219l2.4306641,2.8222656
		L365.7871704,96.7360458z"/>
	<path fill="#FFFFFF" d="M400.2149048,238.1764679l11.1181641,0.7451172l0.8417969-12.5576172l-11.1181641-0.7460938
		l0.2080078-3.1142578l24.4130859,1.6357422l-0.2089844,3.1152344l-10.5488281-0.7070313l-0.8408203,12.5576172
		l10.5478516,0.7080078l-0.2080078,3.1142578l-24.4130859-1.6357422L400.2149048,238.1764679z"/>
	<path fill="#FFFFFF" d="M406.7910767,257.8854675l-9.4238281-1.8378906l0.5966797-3.0634918l9.4248047,1.8359375
		l16.4023438-6.4140625l-0.7382813,3.7890625l-13.0722656,4.7714996l10.3613281,9.1347656l-0.7128906,3.6572266
		L406.7910767,257.8854675z"/>
	<path fill="#FFFFFF" d="M391.8838501,276.502655l2.9560547-8.9580078l23.2402344,7.6699219l-2.9570313,8.9580078
		c-1.9462891,5.8974609-7.5234375,8.015625-14.7285156,5.6386719
		C393.1582642,287.4225769,389.9483032,282.368866,391.8838501,276.502655z M412.6777954,282.7985535l1.8095703-5.4824219
		l-18.0117188-5.9443359l-1.8095703,5.4833984c-1.515625,4.5908203,0.8095703,8.0449219,6.6757813,9.9804688
		C407.2705688,288.7926941,411.1621704,287.3903503,412.6777954,282.7985535z"/>
	<path fill="#FFFFFF" d="M380.1397095,304.2614441c1.0966797,0.0449219,2.5576172,0.4150391,3.9042969,1.1015625
		l1.9501953,0.9794922c2.7050781,1.3447266,4.4833984,0.75,5.6806641-1.7275391l3.5048828-7.2548828l-9.4921875-4.5859375
		l1.3583984-2.8105469l22.0351563,10.6435547l-4.9052734,10.15625c-2.0878906,4.3232422-5.3271484,5.703125-9.1357422,3.8632813
		c-2.5087891-1.2109375-3.5693359-2.9541016-3.5810547-6.0166016c-2.1806641,1.8916016-3.53125,1.9091797-7.1875,0.21875
		c-2.9472656-1.3857422-3.8496094-1.5244141-5.0859375-0.8164063l-0.6962891-0.3359375L380.1397095,304.2614441z
		 M401.960022,309.0212097l3.2841797-6.7998047l-7.5869141-3.6640625l-3.2841797,6.7998047
		c-1.4462891,2.9931641-0.9091797,4.8916016,1.6894531,6.1484375
		C398.5420532,312.7028503,400.4404907,312.165741,401.960022,309.0212097z"/>
	<path fill="#FFFFFF" d="M370.7617798,318.6081238c3.8798828-5.8837891,10.6787109-7.109375,17.0673828-2.8964844
		c6.3886719,4.2138672,8.2480469,11.1484375,4.3857422,17.0048828c-3.9541016,5.9960938-10.9785156,6.9541016-17.5625,2.6113281
		C368.656311,331.3737488,366.8067017,324.6051941,370.7617798,318.6081238z M389.9170532,331.2028503
		c2.8457031-4.3173828,1.2373047-9.5585938-3.8056641-12.8847656c-5.0439453-3.3261719-10.1884766-2.5371094-13.0527344,1.8066406
		c-2.8457031,4.3144531-1.5634766,9.3818359,3.3681641,12.6337891
		C381.5830688,336.1579285,386.9981079,335.6296082,389.9170532,331.2028503z"/>
	<path fill="#FFFFFF" d="M254.963913,397.1598816l4.8652496,19.9277344l1.8203125-21.5585938l3.1953125-0.78125
		l11.6162109,18.2783203l-4.8652344-19.9267578l2.8701172-0.7011719l5.8046875,23.7753906l-4.2070313,1.0273438
		l-12.1005859-18.9892578l-1.8574219,22.3974609l-4.2070313,1.0273438l-5.8047028-23.7753906L254.963913,397.1598816z"/>
	<path fill="#FFFFFF" d="M247.3144989,398.4518738l2.5341797,24.3349609l-16.8574219,1.7548828l-0.2851563-2.7373047
		l13.7529297-1.4326172l-0.8095703-7.7773438l-13.2519531,1.3808594l-0.2851563-2.7382813l13.2519531-1.3789063
		l-0.8701172-8.3466797l-14.3535156,1.4951172l-0.2841797-2.7363281L247.3144989,398.4518738z"/>
	<path fill="#FFFFFF" d="M216.5078583,421.9733582l0.2172852-21.71875l3.1220703,0.03125l-0.2167969,21.71875l8.0561523,0.0810547
		l-0.0273438,2.7519531l-19.2011719-0.1914063l0.0273438-2.7529297L216.5078583,421.9733582z"/>
	<path fill="#FFFFFF" d="M193.4219208,398.4499207l1.7143555,7.5820313l9.3798828,1.0117188l3.359375-7.0322266l3.3046875,0.3574219
		l-11.3066406,23.3964844l-4.0058594-0.4326172l-5.9165039-25.2568359L193.4219208,398.4499207z M198.2642059,420.2135925
		l5.203125-10.6484375l-7.7446289-0.8369141L198.2642059,420.2135925z"/>
	<path fill="#FFFFFF" d="M187.4077606,397.4274597l-5.3076172,23.890625l-3.0478516-0.6777344l4.7114258-21.203125
		l-11.7983398-2.6210938l0.5976563-2.6875L187.4077606,397.4274597z"/>
	<path fill="#FFFFFF" d="M169.7339325,393.2477722l-7.690918,23.2294922l-2.9638672-0.9814453l6.8266602-20.6162109
		l-11.4711914-3.7988281l0.8657227-2.6123047L169.7339325,393.2477722z"/>
	<path fill="#FFFFFF" d="M69.1860809,318.7897644l5.1992188,7.8701172L53.967823,340.1471863l-5.1992188-7.8691406
		c-3.4228516-5.1816406-1.6298828-10.8720703,4.699707-15.0527344
		C59.8262215,313.0241394,65.7812958,313.6364441,69.1860809,318.7897644z M51.3613777,331.2087097l3.1816406,4.8173828
		l15.8247032-10.4541016l-3.1821289-4.8173828c-2.6645508-4.0332031-6.8149376-4.3486328-11.9687462-0.9423828
		C50.0073738,323.252655,48.6968269,327.1755066,51.3613777,331.2087097z"/>
	<path fill="#FFFFFF" d="M61.6807137,306.7155457l-21.9428711,10.8271484l-7.5014648-15.1992188l2.4682617-1.21875
		l6.1196289,12.4013672l7.0131836-3.4599609l-5.8964844-11.9501953l2.4682617-1.2177734l5.8964844,11.9492188l7.5258789-3.7138672
		l-6.3876953-12.9423828l2.46875-1.2177734L61.6807137,306.7155457z"/>
	<path fill="#FFFFFF" d="M49.7349129,277.7497253c2.3398438,6.7929688-1.512207,12.203125-8.2734375,14.5332031
		c-6.7607422,2.328125-13.6352539,0.7207031-16.0517578-6.2949219c-1.7495117-5.078125-0.0898438-8.9169922,4.671875-11.5869141
		l1.0385742,3.0146484c-3.2714844,1.9443359-4.234375,4.40625-2.987793,8.0263672
		c1.5419922,4.4746094,6.3447266,5.9433594,12.2807617,3.8994141c5.7768555-1.9902344,8.2939453-6.1240234,6.7080078-10.7265625
		c-1.3447266-3.9042969-4.0107422-5.0458984-8.6318359-4.234375l-1.0498047-3.046875
		C43.7114754,269.9538269,47.7881355,272.0993347,49.7349129,277.7497253z"/>
	<path fill="#FFFFFF" d="M43.6060066,254.9811554c1.3818359,6.9131012-2.5883789,12.5683746-10.0942383,14.0683746
		c-7.5048828,1.5-13.7060547-2.1210938-15.081543-9.0019531c-1.4082031-7.042984,2.9111328-12.6660309,10.6464844-14.2119293
		C36.1211433,244.4274445,42.1973152,247.9372101,43.6060066,254.9811554z M21.1299324,259.5085144
		c1.0126953,5.0693359,5.8447266,7.6640625,11.7700195,6.4794922s9.0263672-5.3642578,8.0068359-10.4668121
		c-1.0136719-5.0693359-5.4902344-7.7695313-11.2832031-6.6103516
		C23.5664558,250.1217804,20.0898933,254.3083038,21.1299324,259.5085144z"/>
	<path fill="#FFFFFF" d="M39.4316902,223.9958038c-0.9775391,0.4990234-2.4331055,0.8925781-3.9428711,0.953125
		l-2.1796875,0.1025391c-3.0175781,0.1542969-4.2758789,1.5449219-4.1044922,4.2919922l0.5019531,8.0410156l10.5195313-0.6572266
		l0.1943359,3.1162109l-24.4228516,1.5244141l-0.7026367-11.2568359c-0.2988281-4.7910156,1.8476572-7.5820313,6.0688486-7.8457031
		c2.7807617-0.1738281,4.5581055,0.8261719,6.0703125,3.4892578c0.9731445-2.7177734,2.1420898-3.3964844,6.1582031-3.7138672
		c3.2470703-0.2363281,4.1015625-0.5585938,4.8325195-1.78125l0.7705078-0.0478516L39.4316902,223.9958038z M18.0796394,230.5426788
		l0.4707031,7.5371094l8.4091797-0.5244141l-0.4707031-7.5371094c-0.2070313-3.3164063-1.6049805-4.7099609-4.4863281-4.5302734
		C19.2549324,225.6598663,17.8628426,227.0583038,18.0796394,230.5426788z"/>
</g>
</g>
</svg>
