<?xml version="1.0" encoding="utf-8"?>
<!-- Generator: Adobe Illustrator 18.1.1, SVG Export Plug-In . SVG Version: 6.00 Build 0)  -->
<svg version="1.1" id="Слой_1" xmlns:x="&ns_extend;" xmlns:i="&ns_ai;" xmlns:graph="&ns_graphs;"
	 xmlns="http://www.w3.org/2000/svg" xmlns:xlink="http://www.w3.org/1999/xlink" x="0px" y="0px"
	 viewBox="0 0 588.5473022 592.251709" enable-background="new 0 0 588.5473022 592.251709" xml:space="preserve">
<metadata>
	<sfw  xmlns="&ns_sfw;">
		<slices></slices>
		<sliceSourceBounds  width="589.6629028" height="589.6629639" bottomLeftOrigin="true" y="-398.9487" x="-169.4533691">
			</sliceSourceBounds>
	</sfw>
</metadata>
<g id="all_servs">
<polygon fill="#AAC82D" points="204.9954071,523.3417358 192.3018036,490.4983215 223.4845428,476.6378174 "/>

<g id="serv1">
	<path fill="#3DB9D7" d="M384.5086365,69.8822479l18.7355042-47.32901
	C327.5651245-7.4065399,246.9078369-3.8557396,177.681778,26.1044903l65.122818,150.477829
	c30.7192383-13.2971497,66.5080872-14.8699036,100.0877075-1.576416l23.1263123-58.4202118"/>
	<path fill="#FFFFFF" d="M266.5237122,57.3884087c1.6779785,6.2277527,5.6728516,11.6173897,11.2663879,15.0873604
		c0.1000671,1.0614853,0.9283752,2.1772537,2.2183533,2.8134766c1.7730713,0.9015503,3.7553711,0.5879135,4.3921814-0.6848145
		c0.6367798-1.2727356-0.286499-3.0457535-2.0532837-3.924469c-1.092865-0.5463486-2.2194214-0.6016083-3.1222839-0.2782974
		c-4.8595581-2.9822083-8.4173279-7.5863686-10.0615234-12.9537735c1.5937195-0.4937973,2.7468567-2.0215302,2.7247009-3.7826233
		l-0.0218201-1.732193c2.2777405,10.753521,10.3200378,20.6664352,19.7725525,20.5474777
		s17.2199097-10.2308311,19.2262878-21.038269l0.0218201,1.732193c0.0275269,2.188591,1.8336792,3.9272308,4.0166321,3.8997612
		c2.17099-0.0273247,3.9271851-1.8107948,3.8996277-3.9993858l-0.1038208-8.251091
		c-0.0173645-1.3801155-0.7546997-2.6070023-1.8662415-3.2916412
		c-1.6280212-12.8173962-12.6727905-22.6752491-25.8899536-22.5089149
		c-13.2171936,0.1663361-23.9874878,10.298727-25.3156738,23.1533241c-1.0710449,0.7121086-1.8005371,1.9574547-1.7831726,3.3375702
		l0.1038513,8.251091C263.9923706,55.4163857,265.0495605,56.8239517,266.5237122,57.3884087z M290.9980469,21.5519543
		c11.6178589-0.1462078,21.3336487,8.3018608,23.1891785,19.4244633c-1.3084412,0.1955261-2.4013062,1.0235214-2.9760437,2.1569481
		c-1.2868347-10.9450569-9.8424377-16.6357765-20.1492615-16.5060673
		c-10.283905,0.1294212-18.6932373,6.0336399-19.727478,17.007906c-0.4373169-0.8030968-1.104248-1.476059-1.9862976-1.8230858
		c-0.1359863-0.2467918-0.363739-0.4459-0.636261-0.5348206c-0.1393738-0.0676842-0.2493286-0.0662994-0.3645935-0.0648499
		C270.0565186,30.2067757,279.5190735,21.6964149,290.9980469,21.5519543z"/>
	<path fill="#FFFFFF" d="M320.293457,78.3222809l-13.1161804-6.0372772l-8.3670654,17.9735107l-4.3839417-11.5179977
		c-0.9042053,0.1900864-1.7789307,0.4263382-2.7030029,0.4379654c-0.9008179,0.0113373-1.8044434-0.2025299-2.6902466-0.3700943
		l-4.3331604,12.2339706l-8.9835815-18.1594467l-12.5527649,6.1583328
		c-5.6537476,2.7567444-10.2125092,9.4725723-10.1450043,14.8369064l0.0481567,3.826683l77.7671967-0.9786835l-0.0478516-3.803421
		C330.7182007,87.5351334,325.9918518,80.9361572,320.293457,78.3222809z"/>
</g>

<g id="serv2">
	<path fill="#4C4B4B" d="M403.2480164,22.5516491l-60.3557129,152.4542542
	c31.1254883,12.3188324,57.544342,36.513382,71.8884583,69.6582794l57.661499-24.9575348l33.2271118,11.6530457
	l12.8696899-31.6016541l46.71698-20.2207947C532.9265137,104.8400574,473.3836975,50.3169403,403.2480164,22.5516491z"/>
	<path fill="#FFFFFF" d="M484.8809204,144.8803406c0,0-3.1928711-1.8710022-6.9655762-4.5045776l4.6246033-8.3728638
		l1.2399902,1.1138763l10.3695068-11.5437012l-4.2166443-3.7877274l8.1570129-9.0806885l-4.4984741-4.0409241l-8.1570435,9.0806885
		l-4.2189636-3.7898254l-10.3695068,11.5436935l1.2327271,1.1073227l-7.815033,5.4897079
		c-3.012085-3.4610901-5.2316895-6.4347839-5.2316895-6.4347839l-4.6438904,5.1697464c0,0,1.7318115,2.3155136,4.1964722,5.2374191
		l-23.8756714,16.7471619l1.1166382,1.5729523l-2.0709839,1.4981537l0.6902771,0.9567871l-0.8711548,0.6333618l0.3927002,0.5383759
		l0.8710938-0.6334381l0.8361206,1.1741028l2.0451965-1.4694366l1.2218628,1.7536469l24.7225037-17.1996307
		c0.7980347,0.8032684,1.606781,1.5944366,2.407074,2.3133392c0.7669067,0.6888885,1.5835571,1.375061,2.4197388,2.0397644
		l-14.4602966,26.4007111l1.8766479,1.0297241l-1.3296814,2.3451996l1.236145,0.7047729l-0.5206299,0.9351959l0.5772705,0.3329163
		l0.5366211-0.9339752l1.0200195,0.5753326l1.3554688-2.3739166l1.7012634,0.9411926l14.0890503-25.5211792
		c3.1781006,2.1468811,5.6738586,3.6117859,5.6738586,3.6117859L484.8809204,144.8803406z M481.3597412,112.480072
		l10.2727966,9.2278671l-7.9873962,8.8918533l-10.2727966-9.2278595L481.3597412,112.480072z M439.3860168,152.3732605
		l-2.1844788-3.1233978l22.5585632-15.8239746c0.842865,0.9599915,1.730072,1.9425964,2.6534424,2.9232483L439.3860168,152.3732605z
		 M468.1684265,132.3454895c-0.9311523-0.9528961-1.8450928-1.9249725-2.7155457-2.8926392l7.9969788-5.6154175l3.0315857,2.7232437
		L468.1684265,132.3454895z M470.7235718,134.7918396c-0.4180298-0.3755341-0.8417053-0.7690125-1.2726746-1.1734009
		l5.8671875-4.0711517l-3.4303589,6.2601166C471.4809265,135.4721527,471.0986938,135.1287842,470.7235718,134.7918396
		L470.7235718,134.7918396z M478.1537781,128.0628967l3.0317078,2.7233124l-4.7278748,8.5693817
		c-1.0646362-0.7707214-2.1287537-1.5756226-3.1758118-2.3994751L478.1537781,128.0628967z M459.794342,169.5445709
		l-3.3412781-1.8402863l13.4631042-24.598526c1.0650024,0.8229675,2.1549072,1.5991364,3.1900024,2.3259125L459.794342,169.5445709z
		 M459.794342,169.5445709"/>
	<path fill="#FFFFFF" d="M413.4019165,133.8065796l14.7736206,13.270874l52.5020447-58.4471054l-14.7736206-13.2708817
		L413.4019165,133.8065796z M466.1649475,80.2299576l9.6396484,8.6591415l-2.8005676,3.1177139l-4.5821228-4.1160431
		l-1.6674805,1.8562851l4.5821228,4.1160355l-1.7939758,1.997139l-2.9767151-2.6739349l-1.658905,1.8467331l2.9767151,2.6739273
		l-2.4743652,2.7545624l-4.5821228-4.1160355l-1.6588135,1.8466568l4.5821228,4.1160355l-1.8026428,2.0067596l-2.9767151-2.6739273
		l-1.6588745,1.8467255l2.9766846,2.6739349l-2.4313965,2.7067337l-5.0574646-4.5430374l-1.6609802,1.8490601l5.0479736,4.534523
		l-1.8026428,2.0067596l-3.4425659-3.0924149l-1.6589661,1.8468018l3.4520874,3.1009293l-2.472168,2.7520905l-5.0574646-4.543045
		l-1.6609802,1.8490677l5.0480042,4.534523l-1.8027039,2.0068283l-3.4425964-3.0924149l-1.6588135,1.8466568l3.4520569,3.1009293
		l-2.28125,2.539566l-5.0574646-4.543045l-1.6674805,1.8562851l5.0480042,4.534523l-1.7939758,1.997139l-3.4425964-3.0924225
		l-1.6588745,1.8467255l3.4520569,3.1009369l-2.4743958,2.7545624l-5.0574646-4.543045l-1.6588135,1.8466644l5.0480042,4.5345306
		l-1.8027039,2.0068207l-3.4425964-3.0924072l-1.66745,1.8562775l3.4520569,3.1009216l-2.2211304,2.472641l-9.639679-8.6591492
		L466.1649475,80.2299576z M466.1649475,80.2299576"/>
</g>

<g id="serv3">
	<path fill="#3DB9D7" d="M521.4823608,386.3699036l47.3303833,18.7371216l0,0
	c29.960144-75.6799316,26.4073486-156.3401489-3.5531006-225.5683441l-150.4767761,65.1253662
	c13.2954102,30.7184296,14.8712158,66.5074615,1.5766296,100.089859l0,0l58.4170532,23.1261292"/>
	<path fill="#FFFFFF" d="M504.9333496,324.7570801c-0.7705078,0.3925781-1.4726563,0.7900391-2.109375,1.1894531
		c-0.6357422,0.4003906-1.2412109,0.8642578-1.8164063,1.3925781c-0.5761719,0.5283203-1.0263672,0.9384766-1.3544922,1.2314453
		c-0.3261719,0.2919922-0.7822266,0.7617188-1.3652344,1.4072266c-0.5820313,0.6455078-0.9667969,1.0585938-1.1533203,1.2402344
		c-0.0302734,0.0351563-0.0996094,0.1083984-0.2080078,0.2167969s-0.1845703,0.1894531-0.2314453,0.2431641
		c-0.0458984,0.0537109-0.1230469,0.1259766-0.2324219,0.2177734s-0.1962891,0.1572266-0.2607422,0.1953125
		c-0.0625,0.0380859-0.1425781,0.0869141-0.2382813,0.1435547c-0.0947266,0.0576172-0.1914063,0.0986328-0.2900391,0.1230469
		c-0.0996094,0.0244141-0.2050781,0.0410156-0.3212891,0.0507813c-0.1152344,0.0087891-0.2246094,0-0.3271484-0.0253906
		c-0.4716797-0.0625-0.8525391-0.25-1.1445313-0.5605469c-0.2910156-0.3105469-0.4345703-0.6660156-0.4326172-1.0664063
		c0.1025391-1.6757813,0.2558594-3.1210938,0.4609375-4.3378906c0.9267578-5.2070313,2.6875-9.9804688,5.2832031-14.3173828
		c-0.7636719-2.9414063-1.2568359-5.8378906-1.4794922-8.6875c-0.7011719-8.9824219,0.875-16.9746094,4.7285156-23.9785156
		c0.0175781,1.9326172,0.0654297,3.3964844,0.1435547,4.390625c0.4169922,5.3359375,1.5625,10.3974609,3.4375,15.1865234
		c1.875,4.7880859,4.3544922,8.9960938,7.4384766,12.6240234c3.3730469,3.9042969,7.1337891,6.8115234,11.2851563,8.7216797
		c4.1513672,1.9091797,8.4462891,2.6914063,12.8886719,2.34375c2.5517578-0.1992188,5.0410156-0.7773438,7.4667969-1.734375
		c-2.0205078,4.4599609-4.7041016,8.0703125-8.0556641,10.8339844c-3.3525391,2.7626953-7.0673828,4.3037109-11.1445313,4.6220703
		c-3.9765625,0.3105469-7.7900391-0.5751953-11.4355469-2.6572266
		C510.8171387,331.6818848,507.6403809,328.6799316,504.9333496,324.7570801z M555.0769043,262.041748
		c2.6904297,5.2080078,4.2841797,10.9770508,4.7792969,17.3081055c0.4941406,6.3300781-0.1835938,12.2763672-2.0322266,17.8398438
		c-1.8496094,5.5634766-4.609375,10.0556641-8.2763672,13.4765625s-7.8046875,5.3115234-12.4111328,5.671875
		c-4.6074219,0.359375-8.9873047-0.8652344-13.1425781-3.6748047c-4.1533203-2.8095703-7.5771484-6.8193359-10.2675781-12.0273438
		c-2.6904297-5.2089844-4.2841797-10.9775391-4.7783203-17.3076172c-0.2226563-2.8515625-0.1865234-5.7880859,0.1123047-8.8125
		c-3.2382813-3.8818359-5.7207031-8.3232422-7.4443359-13.3232422c-0.3916016-1.1699219-0.7685547-2.5742188-1.1298828-4.2128906
		l-0.0117188-0.1494141c-0.0283203-0.3652344,0.078125-0.7148438,0.3193359-1.050293
		c0.2402344-0.3359375,0.5722656-0.5532227,0.9980469-0.6533203c0.0976563-0.0410156,0.203125-0.065918,0.3193359-0.074707
		c0.1162109-0.0092773,0.2255859-0.0097656,0.3251953-0.0004883c0.1015625,0.0083008,0.203125,0.0341797,0.3056641,0.0761719
		c0.1035156,0.0419922,0.1894531,0.0766602,0.2587891,0.1049805c0.0683594,0.0273438,0.1640625,0.0786133,0.2871094,0.1523438
		c0.1220703,0.0732422,0.2099609,0.1337891,0.2646484,0.1796875c0.0537109,0.0458984,0.1416016,0.1137695,0.265625,0.2041016
		s0.203125,0.1503906,0.2402344,0.1816406c0.2109375,0.1499023,0.6552734,0.4990234,1.3310547,1.0458984
		c0.6757813,0.5478516,1.1982422,0.9394531,1.5683594,1.1782227c0.3681641,0.237793,0.8779297,0.5727539,1.5283203,1.0058594
		c0.6513672,0.4321289,1.3212891,0.7973633,2.0117188,1.0932617c0.6904297,0.2963867,1.4453125,0.5786133,2.2666016,0.8481445
		c2.0644531-4.2963867,4.7460938-7.7573242,8.0410156-10.3818359c3.296875-2.6254883,6.9169922-4.0917969,10.8613281-4.3999023
		c4.6064453-0.3603516,8.9873047,0.8642578,13.1416016,3.6748047
		C548.9616699,252.8239746,552.385498,256.833252,555.0769043,262.041748z M552.0183105,294.2678223
		c1.3789063-4.5429688,1.8701172-9.3496094,1.4736328-14.4208984c-0.3964844-5.0703125-1.6279297-9.7431641-3.6962891-14.0161133
		c-2.0683594-4.2739258-4.6777344-7.5961914-7.8310547-9.9667969c-3.1542969-2.371582-6.4199219-3.4248047-9.8007813-3.1606445
		c-2.7177734,0.2124023-5.2685547,1.2949219-7.6494141,3.2490234c-2.3808594,1.953125-4.3759766,4.5932617-5.9824219,7.9199219
		l-2.4072266,5.0400391l-4.3134766-1.4135742c0.7519531,1.074707,1.4785156,2.0512695,2.1806641,2.9301758l1.7119141,2.0673828
		l-0.2910156,2.6738281c-0.2626953,2.6210938-0.2958984,5.1748047-0.1015625,7.6601563
		c0.3964844,5.0712891,1.6279297,9.7431641,3.6962891,14.0166016c2.0673828,4.2734375,4.6777344,7.5957031,7.8310547,9.9667969
		s6.4199219,3.4248047,9.8007813,3.1611328c3.3808594-0.2646484,6.4433594-1.8125,9.1904297-4.6445313
		C548.5769043,302.4973145,550.6384277,298.8098145,552.0183105,294.2678223z"/>
</g>

<g id="serv4">
		<path fill="#4C4B4B" d="M391.6047974,520.4016724l20.2181702,46.7160645c0,0,0,0,0.0021362-0.0002441
		c74.6980286-32.3292236,129.2219543-91.8738403,156.9876404-162.0104675l-152.4532471-60.3531189
		c-12.3200684,31.1207886-36.512085,57.5437622-69.6591797,71.88797c-0.0010986,0.0028076-0.0010986,0.0028076-0.0010986,0.0028076
		l24.9533691,57.658783"/>
	<path fill="#FFFFFF" d="M490.8095093,477.8105469l3.4350891-3.7732849l10.12677,9.2190857l-3.4277039,3.7651367
	L490.8095093,477.8105469z M497.881012,466.5805359l13.670166-0.633606l-0.2336121-5.1017456l-13.6774902,0.6416321
	L497.881012,466.5805359z M479.2730713,496.0282593l5.0939331-0.2370605l-0.6317749-13.6721802l-5.0957031,0.2390137
	L479.2730713,496.0282593z M464.1578064,462.4296265c-0.5477905,4.8126831,1.1313782,9.8155518,4.9856262,13.3243713
	c6.3838501,5.811676,16.2622681,5.3560486,22.0838928-1.0226135c5.8036804-6.3912354,5.3406067-16.2614441-1.0359802-22.0813599
	c-3.8623047-3.5161133-8.9924011-4.7121582-13.7389526-3.7254333l-1.4967651-1.3626099l-12.2945862,13.5050354
	L464.1578064,462.4296265z M471.2937622,444.2283325c-1.2657776-1.1523438-3.2165527-1.076416-4.426178,0.1262512
	c-1.6601563-0.8780518-4.3889771,0.0527344-6.4559021,2.3231506c-2.0687561,2.2724609-2.732605,5.0683289-1.7103882,6.6471558
	c-1.0822449,1.3147888-0.9760437,3.2487183,0.2978821,4.4084778l0.3322144,0.3024292l12.2872925-13.4969788L471.2937622,444.2283325
	z M461.6726685,460.1672058l12.287262-13.4969788l-1.3123779-1.1947632L460.36026,458.9724731L461.6726685,460.1672058z
	 M452.4298401,457.8457336l-7.0853271-18.8213501l9.5875854,6.7761536l-0.159668,2.9216309l7.0582275-7.7531128
	l-2.8938293,0.4324951l-7.6367798-8.9190674l19.3946838,5.3001099c9.1061707-13.1963806,11.7581787-26.2199707-0.4891052-37.3695374
	l-55.0269775,60.444519C427.4259338,472.0071411,440.150116,468.1528625,452.4298401,457.8457336L452.4298401,457.8457336z
	 M452.4298401,457.8457336"/>
</g>

	<g id="serv5">
		<path fill="#3DB9D7" d="M204.9933624,523.3387451l-18.7378845,47.3322754c0,0,0,0,0.0038605-0.0015869
	c75.6770325,29.9620972,156.3366699,26.4080811,225.5657654-3.5519409l-65.1247864-150.4756165
	c-30.717926,13.2966003-66.5075378,14.8712158-100.088913,1.5770264c-0.0027924-0.0010986-0.0027924-0.0010986-0.0027924-0.0010986
	l-23.1257935,58.4161987"/>

		<path fill="#FFFFFF" d="M272.4970398,511.7325745l-2.7920837,2.9289856l-0.3475647-15.2574768
	c-0.0418396-1.8366089,1.4216309-3.3696594,3.259491-3.4115295l50.5622864-1.151886
	c1.8418579-0.0419617,3.374939,1.4228516,3.4167786,3.2594604l1.5213013,66.7787781
	c0.0419922,1.8430786-1.4228516,3.3748779-3.264679,3.4168701l-10.6896973,0.2435303l0.3453064-1.7481079
	c0.0334167-0.149292,0.0447998-0.2836304,0.0420227-0.4058228l-0.1738586-7.6314087
	c-0.0241089-1.0574951-0.9000549-1.8892822-1.9522705-1.8653564l-26.2336426,0.5976563
	c-1.0509949,0.0239258-1.8894348,0.8947754-1.8653259,1.9523315l0.1738281,7.6314087
	c0.0029297,0.1274414,0.0216064,0.2557983,0.0552063,0.4035645l0.4298401,1.7304688l-10.6936951,0.2435913
	c-1.8378601,0.0418701-3.3695984-1.4216919-3.4115906-3.2647705l-0.5166016-22.6760254l2.7973328-2.9291382l0.5818176,25.539917
	c0.0061035,0.2680054,0.2224426,0.4733887,0.4891052,0.4673462l7.3896484-0.168335l-0.1574707-6.9128418
	c-0.059967-2.6326294,2.031311-4.8214111,4.6626892-4.8813477l26.2336121-0.5976563
	c2.6326599-0.0599976,4.8214111,2.031311,4.8814087,4.6639404l0.1574707,6.9128418l7.3896484-0.168335
	c0.2614441-0.0059814,0.4721069-0.2211304,0.4660034-0.4890747l-1.5213013-66.7787781
	c-0.0059509-0.2614746-0.2263184-0.4720154-0.4877625-0.4660645l-50.5622864,1.151886
	c-0.2613831,0.0059509-0.4732666,0.2263184-0.4673157,0.487793L272.4970398,511.7325745z M310.8948975,558.7150269
	l-23.0924377,0.526062c-0.928833,0.0211792-1.6618958,0.7870483-1.6407471,1.7158813l0.1530762,6.7183228
	c0.0211487,0.928833,0.7883301,1.6605835,1.7171631,1.6394043l6.2966309-0.1434326
	c0.0633545,2.7810669,2.4808044,4.9854736,5.3893433,4.9191895c2.9203796-0.0665283,5.2297363-2.3786011,5.1663513-5.159668
	l6.2349243-0.1420288c0.9287415-0.0211792,1.6605225-0.7870483,1.6393433-1.7158813l-0.1530457-6.7183228
	C312.5844727,559.4310303,311.8184509,558.6939697,310.8948975,558.7150269L310.8948975,558.7150269z M302.6278687,528.965271
	l9.248291,8.8363647l3.6305237-3.8011475l-13.0480957-12.4655151l-20.2145081,21.1569824l3.7998047,3.6305542
	L302.6278687,528.965271z M255.8584595,537.7120972l6.6443176,6.3483887
	c0.9767761,0.9320068,2.6670227,0.7554932,3.769928-0.3947754l3.4957886-3.6574707l-10.1929321-9.7387695l-3.4957275,3.6587524
	C254.9770813,535.0823975,254.8829346,536.7787476,255.8584595,537.7120972L255.8584595,537.7120972z M271.3884888,538.307373
	l-10.1875305-9.7337036l23.2134705-24.2957458c0.1051636-0.1154785,0.4003906-0.4244995,0.8249207-0.5419312
	c0.0454712-0.0220642,0.0962524-0.0442505,0.1471863-0.0598755l12.3074646-4.2341003
	c0.3469238-0.1209412,0.697998-0.0566406,0.9277649,0.1641846c0.2312012,0.2247314,0.3061829,0.5726929,0.2062988,0.919342
	l-3.66922,12.4875793c-0.0146179,0.0515137-0.0332642,0.0980225-0.0583801,0.1497803
	c-0.0980225,0.4294434-0.388031,0.7384033-0.4985352,0.8486938L271.3884888,538.307373z M287.4954224,504.9726563
	l6.2720947,5.9927673l1.5296936-5.2044373l-2.6724854-2.5534363L287.4954224,504.9726563z M271.6832581,534.3416138
	c0.3560791,0.3415527,0.9315186,0.3284912,1.2716675-0.0289307l18.0989075-18.9413452
	c0.3465881-0.362854,0.3335266-0.9369507-0.0291443-1.2782593c-0.3562317-0.345459-0.9316101-0.3323364-1.2729797,0.0289917
	l-18.0975342,18.942627C271.3074951,533.4262085,271.3204956,533.9963379,271.6832581,534.3416138L271.6832581,534.3416138z
	 M271.6832581,534.3416138"/>
	</g>

	<g id="serv6">
		<path fill="#4C4B4B" d="M70.9598923,393.4628296l-46.716301,20.2190247c0,0,0,0,0.0036259,0.0014343
	c32.3239479,74.697998,91.8730774,129.2184448,162.0121155,156.986145l60.352066-152.450531
	c-31.1244202-12.3215332-57.5453949-36.5137024-71.8901062-69.6567993c0.0003967-0.0061646,0.0003967-0.0061646,0.0003967-0.0061646
	l-57.6605377,24.9548035"/>
	<path fill="#FFFFFF" d="M174.5501709,478.6645508c-1.2054749,0.8285522-2.4188843,1.6458435-3.6148529,2.4878845
		c-2.7299042,1.9220581-5.4492645,3.8590698-8.1771393,5.7839966c-1.004364,0.7087402-0.6590271,0.7773438-1.6727753-0.0547485
		c-3.3865814-2.7796631-6.7716217-5.5612488-10.1447296-8.3572083c-0.3597412-0.2981873-0.6957855-0.3951416-1.1655121-0.3510132
		c-4.9406586,0.4641724-9.8838959,0.9008789-14.8262787,1.3466797c-0.0752869,0.0067749-0.1488495,0.0326233-0.4028015,0.0817261
		c0.1252136,0.9803467,0.2760162,1.958252,0.3709259,2.9415283c0.3093872,3.2060242,0.6855621,6.4090881,0.8678894,9.6228333
		c0.1482849,2.6135254,0.8750153,5.0620117,1.6589966,7.516571c0.7304993,2.2871399,1.4501953,4.5777283,2.1633911,6.8703003
		c0.060791,0.1954346,0.0820313,0.4255981,0.0452271,0.6255798c-0.4523468,2.4574585-0.9256439,4.9110413-1.3739777,7.3692322
		c-0.0608978,0.3339233-0.2021332,0.4504395-0.5277405,0.4786987c-1.8888092,0.1638184-3.776474,0.3414917-5.6634979,0.5251465
		c-0.3222198,0.0313721-0.4867401-0.0665894-0.6082306-0.3846436c-0.8779144-2.2982178-1.8043976-4.5783386-2.6469727-6.8892212
		c-0.1680145-0.4607849-0.1009064-1.0359802-0.0409241-1.5465393c0.391922-3.3357849,0.875824-6.662262,1.1906586-10.0048828
		c0.1247253-1.3241882-0.065979-2.6853027-0.182312-4.0235901c-0.3313904-3.8125916-0.6994019-7.6220093-1.0498047-11.4329834
		c-0.0336151-0.3656006-0.0448303-0.7332458-0.0702057-1.1638184c-1.0679703,0.0900879-2.0542221,0.1697388-3.0398026,0.257019
		c-3.890274,0.3444214-7.7808762,0.6853027-11.6703262,1.0387878c-4.0809555,0.3708496-8.1603699,0.7586975-12.2411652,1.1312866
		c-2.6436844,0.241394-5.2849274,0.5354919-7.9341049,0.6833801c-2.6090546,0.1456604-4.6638412-0.9747009-5.6944809-3.4446411
		c-1.2310791-2.9502869,0.7072983-6.6501465,3.8615036-7.1473083c2.5026855-0.3944702,5.0377579-0.5956421,7.5632782-0.8306885
		c7.0829468-0.6591797,14.1682892-1.2926941,21.2529221-1.9337158c2.083107-0.1884766,4.1670685-0.3677063,6.2504578-0.5530396
		c0.1913376-0.0170288,0.3814468-0.0477905,0.5572891-0.070282c-0.181076-1.9595337-0.3586731-3.8814087-0.5402756-5.8466492
		c-1.2470703,0.1676331-2.4961777,0.3355713-3.7248917,0.5007324c-0.1807861-2.1982422-0.3431091-4.1719055-0.5215454-6.3415222
		c0.4413681,0.035553,1.0218964,0.0823364,1.5711136,0.1265869c-2.2007904-7.4754944-2.8775024-14.8641663-2.1106033-22.4720764
		c-0.4873199,0.0332947-1.0580978,0.0722961-1.6843491,0.1150818c-0.2006531-1.9969482-0.3992081-3.973114-0.5977707-5.9492798
		c0.0250015-0.0300903,0.0499954-0.0601807,0.0749969-0.0903015c0.1343231,0.006012,0.2701111,0.0278625,0.4027557,0.0156555
		c3.1126633-0.2870178,6.2255478-0.5718994,9.3371353-0.8704529c1.3155518-0.1262207,2.6282043-0.2826233,3.89888-0.4205933
		c0.1903381,2.091095,0.3685913,4.0492554,0.5500946,6.0429993c-0.5311737,0.0640869-1.0968018,0.1323242-1.5749359,0.1900024
		c2.1394196,7.3448181,2.8395844,14.7330322,2.0385437,22.4341125c0.5217743-0.117981,1.085907-0.2455139,1.5755463-0.3562317
		c0.2084503,2.1483154,0.3999023,4.1213379,0.6087799,6.2738647c-1.2428131,0.0752869-2.5011597,0.1515198-3.7011261,0.2241821
		c0.1671906,1.9642639,0.3320618,3.9012451,0.4994354,5.8674622c0.2037811-0.0109863,0.39711-0.0152588,0.5892334-0.0326843
		c4.9645386-0.4503784,9.9281006-0.9120789,14.8946991-1.3382568c0.4978027-0.0427246,0.8096008-0.2161865,1.1163177-0.586853
		c2.7427979-3.3145752,5.5104523-6.6086121,8.2462921-9.928894c0.3243561-0.3936768,0.5818634-0.4432678,1.0175934-0.2333069
		c1.1604919,0.5591736,2.3399048,1.0790405,3.510376,1.6176147c3.2453766,1.4933167,6.4911346,2.9858398,9.7320099,4.4888916
		c0.177536,0.0823364,0.4158325,0.2360535,0.4484406,0.3933105c0.1380463,0.6657104,0.2089691,1.3453369,0.3212585,2.1388855
		c-3.9125061,0.3459167-7.6581116,0.6770935-11.3610535,1.0044861c0.3275452,3.7065735,0.6500854,7.35672,0.9804382,11.0951843
		c3.7589111-0.3672485,7.5044403-0.7331848,11.2516785-1.0992737c0.1229248,0.790863,0.2319641,1.4924927,0.3410187,2.1941223
		C174.7001648,478.4839478,174.6251678,478.5742493,174.5501709,478.6645508z M94.5289612,476.0732117
		c-0.9946365-0.8785706-2.5572128-0.7737732-3.416832,0.2291565c-0.8101959,0.9452515-0.6985779,2.4986877,0.2398453,3.3380432
		c0.9646301,0.8627625,2.5145798,0.7698059,3.3731155-0.2022705
		C95.6028671,478.4442444,95.5154572,476.9445801,94.5289612,476.0732117z"/>
</g>

	<g id="serv7">
		<path fill="#3DB9D7" d="M68.0235748,206.8548126l-47.3286362-18.7364349
	C-9.264843,263.7973938-5.7128735,344.4541626,24.2472191,413.6832886l150.475174-65.1239624
	c-13.2944031-30.7180481-14.870636-66.5062561-1.5760803-100.088562l-58.4170609-23.1261292"/>
		<path fill="#FFFFFF" d="M34.1396446,289.3269043c9.4385643-0.5377808,17.5295525,6.676239,18.0676003,16.1197815
	c0.537838,9.4398804-6.6811371,17.5310974-16.1197014,18.0688477c-9.4398499,0.5378418-17.5311184-6.6810913-18.0689545-16.1209412
	C17.4805412,297.9510498,24.6997948,289.8647156,34.1396446,289.3269043L34.1396446,289.3269043z M34.1396446,289.3269043"/>
<path fill="#FFFFFF" d="M52.9582176,298.1286316l0.8264084,14.5047302
	c0.6875305,12.0672302,11.0640297,21.3250427,23.1349754,20.6372986l17.7390823-1.0106812l0.2742767-0.0592041l0.3136292-1.2480469
	c2.9407043-11.7198486,3.5732422-21.7941589,3.1039276-30.0313416c-0.916214-16.0810242-6.0345306-25.1427917-6.3581238-25.7083435
	l-0.6469193-1.1049194l-0.0069275-0.1216125l-17.7390823,1.0106812
	C61.5285225,275.6849365,52.2706833,286.0613403,52.9582176,298.1286316L52.9582176,298.1286316z M87.6095886,300.0404358
	l4.7593307,2.8702698c0.0657654,0.0398254,0.10289,0.1012573,0.1073456,0.1794128l0.0002823,0.0049744
	c0.004097,0.0719604-0.0301743,0.1473694-0.0913086,0.1894531l-4.4201355,3.1704712
	c-0.0371017,0.0257263-0.0800095,0.0381775-0.129631,0.0410156l-22.3296661-0.1871033
	c-0.1171875-0.0032959-0.2096252-0.0951538-0.2162018-0.2105713l-0.1721115-3.020813
	c-0.0066452-0.1166992,0.0747604-0.2184448,0.1908188-0.2350159l22.1541214-2.8286133
	C87.5152664,300.0021973,87.5647659,300.0180359,87.6095886,300.0404358L87.6095886,300.0404358z M64.4245224,302.7808228
	l0.2044296,3.5880127l-6.2711639,3.4850769c-0.6155891,0.0350647-1.1430168-0.436615-1.178093-1.0522461l-0.4267426-7.4900208
	c-0.0350723-0.6156006,0.4351463-1.1479492,1.0507393-1.1830139L64.4245224,302.7808228z M64.4245224,302.7808228"/>
	</g>

	<g id="serv8">
		<path fill="#4C4B4B" d="M197.898819,72.8231201l-20.2199707-46.716671
	c-74.6967239,32.32864-129.2178955,91.8743744-156.9839172,162.0119324l152.4513855,60.3523865
	c12.320816-31.1226501,36.5138702-57.5431671,69.6582794-71.888443l-24.9556885-57.6607742"/>		
	<path fill="#FFFFFF" d="M117.4127274,101.1349487c0.2724838-0.0249329,0.5890732-0.0808105,0.9052734-0.0786972
		c3.2857971,0.0219803,6.5716705,0.0820389,9.8571854,0.0649338c1.0198059-0.0053024,1.2468414,0.4414978,1.2253113,1.3504257
		c-0.0602722,2.5443954-0.0569458,5.0902939-0.0790558,7.6355972c-0.1580658,18.1873322-0.3159485,36.374649-0.4747772,54.5619812
		c-0.0166779,1.909317-0.0193939,1.9114075-1.900444,1.8961334c-2.9618149-0.0240479-5.9245071-0.102951-8.8849564-0.0514374
		c-1.167778,0.0203094-1.4736633-0.3545227-1.460968-1.5005646c0.1636276-14.7624207,0.2798462-29.5253906,0.4081268-44.2882156
		c0.052681-6.0624466,0.1030884-12.1249084,0.1633148-18.1872787
		C117.1762161,102.087059,117.0696106,101.608757,117.4127274,101.1349487z M121.5071182,142.8871155
		c-2.1745834,2.0048981-2.1827698,8.866684-0.01297,10.8655853c0.9077759,0.8362885,2.3489304,0.6842957,2.9771118-0.4455261
		c1.7862167-3.2126617,1.8190002-6.5240784,0.2098999-9.8036499
		C124.0667191,142.2512207,122.4510498,142.0168304,121.5071182,142.8871155z"/>
	<path fill="#FFFFFF" d="M88.0585022,150.9064331c-0.2117462-0.3864441-0.0054016-0.7336884,0.1172485-1.0661316
		c1.8705292-5.0700836,3.7433929-10.1393738,5.6353378-15.2015076c1.228569-3.2872162,2.5041199-6.5568695,3.7317429-9.8444366
		c2.326622-6.2306747,4.648056-12.4633942,6.9324951-18.7095795c0.3077774-0.8415146,0.6820831-1.0779266,1.5302734-0.7588043
		c2.5077591,0.9435196,5.0316849,1.8444214,7.5548782,2.7463608c0.8893661,0.3179092,1.304657,0.8389816,1.2533417,1.8576202
		c-0.0976334,1.9381104-0.0764694,3.8832169-0.066864,5.8252335c0.0040894,0.8279648-0.2806168,1.0983429-1.0880661,0.799675
		c-0.9968796-0.3687363-2.0254593-0.6546097-3.0121231-1.0472031c-0.7727356-0.3074799-1.1647186-0.1255035-1.4574203,0.6665878
		c-1.2643814,3.4216232-2.5876312,6.821434-3.8709335,10.2361374c-1.5759125,4.1933594-3.135025,8.3930359-4.6957245,12.5920715
		c-0.125412,0.3374329-0.4194107,0.7351685-0.1726913,1.0408936c0.3023148,0.374649,0.7780914,0.1137238,1.1661453,0.0300903
		c3.7466888-0.8075256,7.4870834-1.644577,11.2369461-2.4369202c1.5736008-0.3325043,1.6845398-0.2161713,1.6821671,1.3721008
		c-0.0023499,1.5722198-0.1175537,3.1507416-0.0110092,4.7147827c0.0973511,1.4289703-0.6905746,1.8286591-1.8425446,2.074173
		c-3.6581421,0.7796478-7.3089066,1.5938873-10.9635544,2.3899994c-4.1511841,0.9042969-8.3019791,1.8105316-12.4578018,2.6930542
		C88.8780212,150.9618225,88.4623337,151.1751099,88.0585022,150.9064331z"/>
	<path fill="#FFFFFF" d="M148.6027832,129.4297638c-5.1626587-1.8928909-10.3106689-3.827446-15.4987335-5.6479187
		c-1.2221375-0.4288406-1.6819153-1.0153732-1.5962372-2.3014297c0.1197815-1.7980042,0.1021118-3.609169,0.058197-5.4126358
		c-0.0288849-1.186882,0.4909363-1.1652985,1.3666534-0.8421783c4.2941284,1.5844193,8.602951,3.1289673,12.897644,4.7118454
		c4.2502136,1.5664825,8.4845123,3.1761627,12.7352753,4.741188c5.8134308,2.140358,11.6361237,4.2555237,17.4530029,6.3865356
		c0.2097931,0.0768585,0.3999481,0.2073212,0.5888977,0.3073273c-0.0535736,0.5717316-0.4872284,0.5613556-0.8191986,0.6338501
		c-8.8950348,1.9424896-17.7921448,3.8755035-26.6884155,5.8124237c-5.3738708,1.1700134-10.7486572,2.3359375-16.1191864,3.5210571
		c-1.5218658,0.3358307-1.6110077,0.2986755-1.6065674-1.2059326c0.0048981-1.6661072,0.0917358-3.335022,0.0192719-4.9973145
		c-0.0521393-1.1962433,0.3684387-1.6936951,1.569397-1.9362946c4.8013916-0.9698944,9.5805206-2.0502167,14.3660583-3.0980072
		c0.4396362-0.0962677,0.8663025-0.2516937,1.2989807-0.3796539
		C148.6194763,129.625,148.6111298,129.5273743,148.6027832,129.4297638z"/>
	<path fill="#FFFFFF" d="M124.8459244,91.5129089c0.0220413,2.02845,0.020195,4.0575714,0.0769958,6.0850449
		c0.025383,0.9062424-0.3352356,1.2263107-1.2294388,1.2003708c-2.0343246-0.0590057-4.0707245-0.0663757-6.1061325-0.0584717
		c-0.8812332,0.0034256-1.2025986-0.2873535-0.8477631-1.1660004c2.0236969-5.0110168,4.0333405-10.0277023,6.0591049-15.0378723
		c0.1287842-0.3184967,0.1473999-0.8211899,0.6183395-0.812645c0.4641724,0.0084152,0.4820557,0.5020752,0.6059341,0.8288803
		c1.8666458,4.9242401,3.7314682,9.849205,5.5717163,14.7833328c0.1668396,0.4473648,0.7824554,1.0796204-0.0597229,1.400116
		c-0.7741089,0.2945938-1.441864-0.0029068-1.7616501-0.8700104c-0.6713943-1.8204727-1.3597717-3.6347656-2.0545425-5.4464722
		c-0.1287766-0.3358002-0.3203659-0.6475296-0.4829559-0.9703674
		C125.1058426,91.4701843,124.9758835,91.4915466,124.8459244,91.5129089z"/>
	<path fill="#FFFFFF" d="M116.7434464,168.7002106c0.3371964-0.0344086,0.6525955-0.0962067,0.9675827-0.0941772
		c3.2804794,0.0211334,6.5610123,0.0787811,9.8412704,0.0649719c0.976387-0.0041199,1.311821,0.3610535,1.2611313,1.3111267
		c-0.066391,1.2445526-0.0544891,2.4944305-0.0416107,3.7416534c0.0086517,0.8375092-0.2802429,1.3056641-1.2005997,1.2932434
		c-3.3264084-0.0449066-6.6531677-0.0640717-9.9798126-0.0905609c-0.5539627-0.004425-1.037796-0.0911255-1.0327606-0.8039398
		c0.0114136-1.6169586,0.0221176-3.233963,0.0450287-4.850769
		C116.606163,169.0965729,116.6868896,168.9224854,116.7434464,168.7002106z"/>
	</g>

<circle fill="#FFFFFF" cx="296.9256897" cy="296.6219177" r="183.4561615"/>
</g>
</svg>
