<?xml version="1.0" encoding="utf-8"?>
<!-- Generator: Adobe Illustrator 18.1.1, SVG Export Plug-In . SVG Version: 6.00 Build 0)  -->
<svg version="1.1" baseProfile="basic" id="Слой_1" xmlns:x="&ns_extend;" xmlns:i="&ns_ai;" xmlns:graph="&ns_graphs;"
	 xmlns="http://www.w3.org/2000/svg" xmlns:xlink="http://www.w3.org/1999/xlink" x="0px" y="0px" viewBox="0 0 142.3333282 81"
	 xml:space="preserve">
<metadata>
	<sfw  xmlns="&ns_sfw;">
		<slices></slices>
		<sliceSourceBounds  height="16383" width="300.5909729" y="-8267" x="0.9415685" bottomLeftOrigin="true"></sliceSourceBounds>
	</sfw>
</metadata>


<g id="g_svg1">


<path id="path_svg1" fill="#202639" d="M25.029562,79.6190033c-0.847002-3.5401077-1.3054771-7.2312088-1.3054771-11.0309906
	c0-3.1553955,0.3118382-6.2375679,0.9019051-9.2196045L4.8343043,48.6779747
	c-2.5183866,7.2206116-3.892736,14.9775085-3.892736,23.0570869c0,2.6669235,0.1640271,5.2945862,0.4543716,7.8839417H25.029562z"/>

	<path id="ico_svg1" fill="#FFFFFF" d="M14.7128906,60.0869141c0.3154297,0.1342773,0.5087891,0.4541016,0.581543,0.9575195
		c0.0722656,0.5039063,0.0234375,1.0136719-0.1469727,1.5258789l-0.5419922,1.6318359l3.4350586,4.1567383
		c0.065918,0.0737305,0.0756836,0.1616211,0.0307617,0.2631836l-0.5390625,1.0805664
		c-0.0185547,0.0429688-0.0537109,0.0771484-0.1083984,0.1040039c-0.0175781,0.0092773-0.0341797,0.0151367-0.050293,0.0180664
		c-0.0742188,0.0200195-0.1396484,0.0078125-0.1958008-0.0375977l-3.6015625-2.4833984l-0.8720703,2.6230469l1.0141602,1.1303711
		c0.0605469,0.0649414,0.0776367,0.1435547,0.0512695,0.2363281l-0.3232422,0.972168
		c-0.0200195,0.0615234-0.0625,0.1079102-0.125,0.1391602l-0.0136719,0.0068359
		c-0.0717773,0.0249023-0.140625,0.0219727-0.2050781-0.0063477l-2.1289063-1.0620117l-2.340332-0.4223633
		c-0.0649414-0.0068359-0.1201172-0.0439453-0.1655273-0.1113281c-0.0332031-0.0556641-0.0419922-0.1225586-0.0234375-0.199707
		l0.3193359-0.9790039c0.0205078-0.0605469,0.0625-0.1069336,0.125-0.1386719
		c0.0273438-0.0131836,0.0458984-0.0205078,0.0571289-0.0209961l1.4887695-0.2978516l0.871582-2.6245117l-4.3725586-0.1640625
		C6.8530273,66.3803711,6.7875977,66.3457031,6.737793,66.28125c-0.0449219-0.0688477-0.0551758-0.1386719-0.0307617-0.2128906
		l0.4306641-1.2973633c0.0341797-0.090332,0.0927734-0.1416016,0.175293-0.15625l5.0268555-1.1757813l0.5380859-1.621582
		c0.1708984-0.5131836,0.4355469-0.9501953,0.7949219-1.3105469C14.0332031,60.1459961,14.3789063,60.0063477,14.7128906,60.0869141
		z"/>
</g>

<g id="g_svg2">

	<path id="path_svg2" fill="#202639" d="M25.8238373,54.6273689c2.0631943-6.6776733,5.5650864-12.7236977,10.1463699-17.773735
	l-11.965229-17.0525761C16.5573883,26.537859,10.5679665,34.8550987,6.5597191,44.2218895L25.8238373,54.6273689z"/>

				<path id="ico_svg2" fill="#FFFFFF" d="M27.7973633,34.6762695v3.7792969c0,0.1176758-0.0395508,0.2226563-0.1181641,0.3134766
		c-0.0786133,0.0913086-0.1796875,0.144043-0.3027344,0.1586914l-7.7060547,0.9003906
		c0.0048828,0.034668,0.0161133,0.0874023,0.0332031,0.1586914c0.0170898,0.0717773,0.0317383,0.1367188,0.0444336,0.1958008
		c0.012207,0.059082,0.0180664,0.1132813,0.0180664,0.1625977c0,0.0786133-0.0585938,0.2358398-0.1767578,0.472168h6.7905273
		c0.1279297,0,0.2387695,0.046875,0.3325195,0.1401367c0.0932617,0.09375,0.1401367,0.2045898,0.1401367,0.3325195
		s-0.046875,0.2382813-0.1401367,0.3320313c-0.09375,0.0932617-0.2045898,0.1401367-0.3325195,0.1401367h-7.5585938
		c-0.1279297,0-0.2382813-0.046875-0.3320313-0.1401367c-0.0932617-0.09375-0.1401367-0.2041016-0.1401367-0.3320313
		c0-0.0693359,0.0268555-0.1665039,0.0810547-0.2919922s0.1269531-0.2714844,0.2177734-0.4389648
		c0.0913086-0.1674805,0.1416016-0.2607422,0.1513672-0.2807617l-1.3066406-6.074707h-1.5058594
		c-0.1279297,0-0.2382813-0.046875-0.3320313-0.1401367c-0.0932617-0.0932617-0.1401367-0.2041016-0.1401367-0.3320313
		s0.046875-0.2387695,0.1401367-0.3325195c0.09375-0.0932617,0.2041016-0.1401367,0.3320313-0.1401367h1.8896484
		c0.0791016,0,0.1489258,0.0161133,0.2104492,0.0478516c0.0615234,0.0322266,0.1108398,0.0703125,0.1479492,0.1147461
		c0.0366211,0.0439453,0.0688477,0.1044922,0.0957031,0.1806641s0.0454102,0.1416016,0.0556641,0.1958008
		c0.0097656,0.0541992,0.0229492,0.1264648,0.0405273,0.2177734c0.0170898,0.0908203,0.0283203,0.1538086,0.0332031,0.1879883
		h8.8647461c0.1279297,0,0.2387695,0.046875,0.3325195,0.1401367C27.7504883,34.4375,27.7973633,34.5483398,27.7973633,34.6762695z
		 M19.9619141,42.0390625c0.1845703,0.1845703,0.2768555,0.4072266,0.2768555,0.6679688S20.1464844,43.1904297,19.9619141,43.375
		s-0.4072266,0.2768555-0.6679688,0.2768555S18.8105469,43.5595703,18.6259766,43.375s-0.2768555-0.4072266-0.2768555-0.6679688
		s0.0922852-0.4833984,0.2768555-0.6679688s0.4072266-0.2768555,0.6679688-0.2768555S19.7773438,41.8544922,19.9619141,42.0390625z
		 M24.9628906,36.565918c0-0.1279297-0.046875-0.2387695-0.1401367-0.3325195
		c-0.09375-0.0932617-0.2045898-0.1401367-0.3325195-0.1401367s-0.2387695,0.046875-0.3320313,0.1401367l-1.0849609,1.0776367
		v-2.1625977c0-0.1279297-0.046875-0.2387695-0.1401367-0.3320313c-0.09375-0.09375-0.2045898-0.1401367-0.3325195-0.1401367
		s-0.2387695,0.0463867-0.3320313,0.1401367c-0.0932617,0.0932617-0.1401367,0.2041016-0.1401367,0.3320313v2.1625977
		l-1.0849609-1.0776367c-0.09375-0.0932617-0.2045898-0.1401367-0.3325195-0.1401367s-0.2382813,0.046875-0.3320313,0.1401367
		c-0.0932617,0.09375-0.1401367,0.2045898-0.1401367,0.3325195s0.046875,0.2387695,0.1401367,0.3320313l1.8896484,1.8896484
		c0.0932617,0.0932617,0.2041016,0.1401367,0.3320313,0.1401367s0.2387695-0.046875,0.3325195-0.1401367l1.8896484-1.8896484
		C24.9160156,36.8046875,24.9628906,36.6938477,24.9628906,36.565918z M26.5756836,42.0390625
		c0.1845703,0.1845703,0.2768555,0.4072266,0.2768555,0.6679688S26.7602539,43.1904297,26.5756836,43.375
		s-0.4072266,0.2768555-0.6679688,0.2768555S25.4243164,43.5595703,25.2397461,43.375s-0.2768555-0.4072266-0.2768555-0.6679688
		s0.0922852-0.4833984,0.2768555-0.6679688s0.4072266-0.2768555,0.6679688-0.2768555S26.3911133,41.8544922,26.5756836,42.0390625z"
		/>

			
</g>

<g id="g_svg3">
	<path id="path_svg3"  fill="#202639" d="M39.3790359,33.45821c5.5155754-4.963707,12.2047119-8.64888,19.6023674-10.5846901L55.0618973,3.5343287
	C44.8924904,5.894763,35.5728951,10.4711428,27.6391907,16.72686L39.3790359,33.45821z"/>

			<path id="ico_svg3" fill="#FFFFFF" d="M40.472168,18.3901367h10.3803711c0.1040039,0,0.1943359,0.0380859,0.2705078,0.1142578
		c0.0756836,0.0761719,0.1137695,0.1660156,0.1137695,0.2705078v2.690918h-1.5375977v-1.5375977H40.472168v1.5375977h-1.5375977
		v-7.3046875c0-0.1040039,0.0380859-0.1938477,0.1142578-0.2700195c0.0756836-0.0761719,0.1660156-0.1142578,0.2700195-0.1142578
		h0.769043c0.1040039,0,0.1943359,0.0380859,0.2705078,0.1142578c0.0756836,0.0761719,0.1137695,0.1660156,0.1137695,0.2700195
		V18.3901367z M43.4819336,17.5551758c0.300293-0.300293,0.4506836-0.6625977,0.4506836-1.0874023
		c0-0.4243164-0.1503906-0.7866211-0.4506836-1.0869141s-0.6630859-0.4506836-1.0874023-0.4506836
		s-0.7866211,0.1503906-1.0874023,0.4506836c-0.300293,0.300293-0.4501953,0.6625977-0.4501953,1.0869141
		c0,0.4248047,0.1499023,0.7871094,0.4501953,1.0874023c0.3007813,0.300293,0.6630859,0.4506836,1.0874023,0.4506836
		S43.1816406,17.8554688,43.4819336,17.5551758z M51.2368164,18.0058594v-0.3847656
		c0-0.6367188-0.2250977-1.1801758-0.6757813-1.6308594c-0.4501953-0.4501953-0.9941406-0.6757813-1.6308594-0.6757813h-4.2290039
		c-0.1040039,0-0.1943359,0.0380859-0.2700195,0.1142578c-0.0761719,0.0761719-0.1142578,0.1665039-0.1142578,0.2705078v2.3066406
		H51.2368164z"/>


</g>

<g id="g_svg4">

	<path id="path_svg4" fill="#202639" d="M63.6224251,21.9061451c2.396656-0.3745327,4.8524208-0.5706253,7.3541756-0.5706253
	c4.3350983,0,8.5325394,0.5869579,12.5206146,1.6801739l4.8805008-19.1080856
	C82.8074799,2.4809811,76.9700089,1.7216271,70.95504,1.7216271c-3.8268433,0-7.5803909,0.311741-11.2405319,0.9024926
	L63.6224251,21.9061451z"/>

		<path id="ico_svg4" fill="#FFFFFF" d="M79.3056641,6.8017578v7.0351563c0,0.0688477-0.0092773,0.1298828-0.0273438,0.1821289
		c-0.0185547,0.0527344-0.0493164,0.0952148-0.0927734,0.1274414c-0.043457,0.0317383-0.081543,0.0581055-0.1132813,0.0786133
		c-0.0322266,0.0209961-0.0859375,0.034668-0.1616211,0.0415039s-0.1269531,0.0112305-0.1542969,0.0136719
		c-0.027832,0.0024414-0.0859375,0.0024414-0.175293,0s-0.1411133-0.003418-0.1547852-0.003418
		c0,0.4853516-0.171875,0.8999023-0.5151367,1.2436523c-0.34375,0.3432617-0.7583008,0.5151367-1.2436523,0.5151367
		s-0.8999023-0.171875-1.2436523-0.5151367c-0.3432617-0.34375-0.5151367-0.7583008-0.5151367-1.2436523h-2.6381836
		c0,0.4853516-0.171875,0.8999023-0.5151367,1.2436523c-0.34375,0.3432617-0.7583008,0.5151367-1.2436523,0.5151367
		s-0.8999023-0.171875-1.2436523-0.5151367c-0.3432617-0.34375-0.5151367-0.7583008-0.5151367-1.2436523h-0.4394531
		c-0.0141602,0-0.0654297,0.0009766-0.1547852,0.003418s-0.1479492,0.0024414-0.175293,0s-0.0791016-0.0068359-0.1542969-0.0136719
		c-0.0756836-0.0068359-0.1298828-0.0205078-0.1616211-0.0415039c-0.0322266-0.0205078-0.0698242-0.046875-0.1132813-0.0786133
		c-0.0439453-0.0322266-0.074707-0.074707-0.0927734-0.1274414c-0.0185547-0.0522461-0.0273438-0.1132813-0.0273438-0.1821289
		c0-0.1186523,0.043457-0.2216797,0.1303711-0.309082c0.0869141-0.0869141,0.1899414-0.1303711,0.309082-0.1303711v-2.1987305
		c0-0.0366211-0.0009766-0.1166992-0.003418-0.2402344s-0.0024414-0.2104492,0-0.2612305
		c0.0024414-0.050293,0.0078125-0.1293945,0.0170898-0.2368164s0.0239258-0.1923828,0.0449219-0.2543945
		c0.0205078-0.0615234,0.0522461-0.1313477,0.0961914-0.2094727c0.043457-0.0776367,0.0947266-0.1464844,0.1542969-0.2060547
		l1.3603516-1.3603516c0.0869141-0.0869141,0.2026367-0.1601563,0.347168-0.2197266
		c0.144043-0.0595703,0.2783203-0.0893555,0.4018555-0.0893555h1.0991211V6.8017578
		c0-0.1186523,0.043457-0.222168,0.1303711-0.309082s0.1904297-0.1303711,0.3095703-0.1303711h7.0351563
		c0.1191406,0,0.222168,0.043457,0.309082,0.1303711S79.3056641,6.6831055,79.3056641,6.8017578z M68.7529297,10.7592773h2.6381836
		V9.0004883h-1.0854492c-0.0595703,0-0.1098633,0.0205078-0.1513672,0.0620117l-1.3393555,1.3393555
		c-0.0415039,0.0415039-0.0620117,0.0917969-0.0620117,0.1513672V10.7592773z M71.1298828,14.8950195
		c0.1743164-0.1738281,0.2612305-0.3798828,0.2612305-0.6181641s-0.0869141-0.4443359-0.2612305-0.6181641
		C70.9560547,13.484375,70.75,13.3974609,70.5117188,13.3974609s-0.4443359,0.0869141-0.6181641,0.2612305
		c-0.1743164,0.1738281-0.2612305,0.3798828-0.2612305,0.6181641s0.0869141,0.4443359,0.2612305,0.6181641
		c0.1738281,0.1743164,0.3798828,0.2612305,0.6181641,0.2612305S70.9560547,15.0693359,71.1298828,14.8950195z
		 M77.2856445,14.8950195c0.1743164-0.1738281,0.2612305-0.3798828,0.2612305-0.6181641s-0.0869141-0.4443359-0.2612305-0.6181641
		c-0.1738281-0.1743164-0.3798828-0.2612305-0.6181641-0.2612305s-0.4443359,0.0869141-0.6181641,0.2612305
		c-0.1743164,0.1738281-0.2612305,0.3798828-0.2612305,0.6181641s0.0869141,0.4443359,0.2612305,0.6181641
		c0.1738281,0.1743164,0.3798828,0.2612305,0.6181641,0.2612305S77.1118164,15.0693359,77.2856445,14.8950195z"/>

</g>

<g id="g_svg5">
	<path fill="#202639" id="path_svg5" d="M105.0056,35.8121185l12.5445862-16.3248596
	C110.4826889,13.1799068,102.129364,8.2829762,92.9292603,5.244081L88.010498,24.5019283
	C94.4877396,27.0063381,100.2721939,30.899435,105.0056,35.8121185z"/>
<g id="ico_svg5">
		<path fill="#FFFFFF" d="M100.2989273,17.1610584c0.1090622,0.0930328,0.2356415,0.1421108,0.3827133,0.1421108h1.9978485
		c0.1472397,0,0.273819-0.049078,0.3828812-0.1421108c0.0135498-0.0115738,0.0277634-0.0211506,0.0413132-0.0342064
		c0.1168213-0.1168308,0.1754913-0.2581196,0.1754913-0.4233665v-1.9978476c0-0.1652479-0.05867-0.3065367-0.1754913-0.4233665
		c-0.1174927-0.1174917-0.2589493-0.1763172-0.4241943-0.1763172h-1.9978485c-0.1652374,0-0.3065262,0.0588255-0.4233627,0.1763172
		c-0.117485,0.1168299-0.1761551,0.2581186-0.1761551,0.4233665v1.9978476c0,0.165247,0.05867,0.3065357,0.1761551,0.4233665
		C100.2711716,17.1399078,100.2853775,17.1494846,100.2989273,17.1610584L100.2989273,17.1610584z M100.6152115,15.6744823
		V14.772069c0-0.036027,0.0128937-0.0670919,0.0393295-0.0935316c0.0266037-0.0264359,0.0575027-0.0393305,0.0936966-0.0393305
		h0.2658844c0.0361862,0,0.067749,0.0128946,0.0936966,0.0393305c0.0264435,0.0264397,0.0399933,0.0575047,0.0399933,0.0935316
		v0.6662769h1.0656815V14.772069c0-0.036027,0.012886-0.0670919,0.0393295-0.0935316
		c0.0264359-0.0264359,0.0575027-0.0393305,0.0936966-0.0393305h0.2658844c0.0361862,0,0.067749,0.0128946,0.0935287,0.0393305
		c0.0266037,0.0264397,0.0401535,0.0575047,0.0401535,0.0935316v1.8649855c0,0.036026-0.0135498,0.067091-0.0401535,0.0935307
		c-0.0257797,0.0264416-0.0573425,0.0393314-0.0935287,0.0393314h-0.2658844c-0.0361938,0-0.0672607-0.0128899-0.0936966-0.0393314
		c-0.0264435-0.0264397-0.0393295-0.0575047-0.0393295-0.0935307v-0.6662779h-1.0656815v0.6662779
		c0,0.036026-0.0128937,0.067091-0.0394974,0.0935307c-0.0264435,0.0264416-0.0573425,0.0393314-0.0935287,0.0393314h-0.2665482
		c-0.0361938,0-0.0670929-0.0128899-0.0936966-0.0393314c-0.0264359-0.0264397-0.0393295-0.0575047-0.0393295-0.0935307V15.6744823z
		 M100.6152115,15.6744823"/>

			<path fill="#FFFFFF" d="M105.4777985,15.6744823h-1.8021927v1.0290031c0,0.2698479-0.1008072,0.5130959-0.291832,0.7042847
		c-0.1910248,0.1910267-0.434433,0.2916641-0.7042847,0.2916641h-1.9978485c-0.2696838,0-0.513092-0.1006374-0.7041168-0.2916641
		c-0.1911926-0.1911888-0.291832-0.4344368-0.291832-0.7042847v-1.0290031h-1.8021927
		c-0.102623,0-0.1916885,0.0375147-0.2665405,0.1123724c-0.0755234,0.0755186-0.1130295,0.164588-0.1130295,0.2672071v9.8717461
		c0,0.1026192,0.0375061,0.1916828,0.1130295,0.2665405c0.074852,0.0755196,0.1639175,0.1128674,0.2665405,0.1128674h2.5367203
		c-0.0089188-0.0431328-0.0147018-0.0884075-0.0147018-0.1355038v-1.7293186c0-0.1723537,0.0626297-0.3214092,0.1890411-0.4479885
		c0.1265793-0.1257553,0.2756271-0.189045,0.4486465-0.189045h1.2748871c0.172348,0,0.3220673,0.0632896,0.4479904,0.189045
		c0.1264114,0.1265793,0.1897049,0.2756348,0.1897049,0.4479885v1.7293186c0,0.0470963-0.0057907,0.092371-0.0148773,0.1355038
		h2.5368881c0.102623,0,0.1916885-0.0373478,0.2665482-0.1128674c0.0755157-0.0748577,0.1130219-0.1639214,0.1130219-0.2665405
		v-9.8717461c0-0.1032801-0.0375061-0.1916885-0.1130219-0.2672071
		C105.669487,15.711997,105.5804214,15.6744823,105.4777985,15.6744823L105.4777985,15.6744823z M104.8374634,22.8454189
		c-0.0457764,0.0457745-0.1001434,0.0684166-0.1621094,0.0684166h-0.4608765c-0.0626297,0-0.1161652-0.0226421-0.1619415-0.0684166
		c-0.0457764-0.0457764-0.0684128-0.0994778-0.0684128-0.1621075V22.222435c0-0.0619678,0.0226364-0.116169,0.0684128-0.1619434
		c0.0457764-0.0452824,0.0993118-0.0684128,0.1619415-0.0684128h0.4608765c0.0619659,0,0.116333,0.0231304,0.1621094,0.0684128
		c0.0451126,0.0457745,0.0684128,0.0999756,0.0684128,0.1619434v0.4608765
		C104.9058762,22.7459412,104.882576,22.7996426,104.8374634,22.8454189L104.8374634,22.8454189z M104.8374634,21.002573
		c-0.0457764,0.0457745-0.1001434,0.0684128-0.1621094,0.0684128h-0.4608765c-0.0626297,0-0.1161652-0.0226383-0.1619415-0.0684128
		c-0.0457764-0.0459366-0.0684128-0.0994778-0.0684128-0.1621075v-0.4608765c0-0.0619678,0.0226364-0.116169,0.0684128-0.1614494
		c0.0457764-0.0457706,0.0993118-0.068903,0.1619415-0.068903h0.4608765c0.0619659,0,0.116333,0.0231323,0.1621094,0.068903
		c0.0451126,0.0452805,0.0684128,0.0994816,0.0684128,0.1614494v0.4608765
		C104.9058762,20.9030952,104.882576,20.9572964,104.8374634,21.002573L104.8374634,21.002573z M104.8374634,19.159565
		c-0.0457764,0.0459366-0.1001434,0.0684128-0.1621094,0.0684128h-0.4608765c-0.0626297,0-0.1161652-0.0224762-0.1619415-0.0684128
		c-0.0457764-0.0457745-0.0684128-0.0993156-0.0684128-0.1619396v-0.4608822c0-0.0619678,0.0226364-0.116169,0.0684128-0.1621056
		c0.0457764-0.0451088,0.0993118-0.0677528,0.1619415-0.0677528h0.4608765c0.0619659,0,0.116333,0.022644,0.1621094,0.0677528
		c0.0451126,0.0459366,0.0684128,0.1001377,0.0684128,0.1621056v0.4608822
		C104.9058762,19.0602493,104.882576,19.1144505,104.8374634,19.159565L104.8374634,19.159565z M102.1411209,18.5367432
		c0-0.0619678,0.0226364-0.116169,0.068573-0.1621056c0.0457687-0.0451088,0.0993118-0.0677528,0.1619415-0.0677528h0.4608688
		c0.0619736,0,0.1161728,0.022644,0.162117,0.0677528c0.0451126,0.0459366,0.067749,0.1001377,0.067749,0.1621056v0.4608822
		c0,0.062624-0.0226364,0.1168251-0.067749,0.1619396c-0.0459442,0.0459366-0.1001434,0.0684128-0.162117,0.0684128h-0.4608688
		c-0.0626297,0-0.1161728-0.0224762-0.1619415-0.0684128c-0.0459366-0.0457745-0.068573-0.0993156-0.068573-0.1619396V18.5367432z
		 M102.1411209,20.3795891c0-0.0619678,0.0226364-0.116169,0.068573-0.1614494
		c0.0457687-0.0457706,0.0993118-0.068903,0.1619415-0.068903h0.4608688c0.0619736,0,0.1161728,0.0231323,0.162117,0.068903
		c0.0451126,0.0452805,0.067749,0.0994816,0.067749,0.1614494v0.4608765c0,0.0626297-0.0226364,0.1168308-0.067749,0.1621075
		c-0.0459442,0.0457745-0.1001434,0.0684128-0.162117,0.0684128h-0.4608688c-0.0626297,0-0.1161728-0.0226383-0.1619415-0.0684128
		c-0.0459366-0.0459366-0.068573-0.0994778-0.068573-0.1621075V20.3795891z M99.3087616,22.8454189
		c-0.0457687,0.0457745-0.0994797,0.0684166-0.1621094,0.0684166h-0.4608688c-0.0626373,0-0.1161728-0.0226421-0.1619415-0.0684166
		c-0.0457764-0.0457764-0.0684204-0.0994778-0.0684204-0.1621075V22.222435c0-0.0619678,0.022644-0.116169,0.0684204-0.1619434
		c0.0457687-0.0452824,0.0993042-0.0684128,0.1619415-0.0684128h0.4608688c0.0626297,0,0.1163406,0.0231304,0.1621094,0.0684128
		c0.0451202,0.0457745,0.0684128,0.0999756,0.0684128,0.1619434v0.4608765
		C99.3771744,22.7459412,99.3538818,22.7996426,99.3087616,22.8454189L99.3087616,22.8454189z M99.3087616,21.002573
		c-0.0457687,0.0457745-0.0994797,0.0684128-0.1621094,0.0684128h-0.4608688c-0.0626373,0-0.1161728-0.0226383-0.1619415-0.0684128
		c-0.0457764-0.0459366-0.0684204-0.0994778-0.0684204-0.1621075v-0.4608765c0-0.0619678,0.022644-0.116169,0.0684204-0.1614494
		c0.0457687-0.0457706,0.0993042-0.068903,0.1619415-0.068903h0.4608688c0.0626297,0,0.1163406,0.0231323,0.1621094,0.068903
		c0.0451202,0.0452805,0.0684128,0.0994816,0.0684128,0.1614494v0.4608765
		C99.3771744,20.9030952,99.3538818,20.9572964,99.3087616,21.002573L99.3087616,21.002573z M99.3087616,19.159565
		c-0.0457687,0.0459366-0.0994797,0.0684128-0.1621094,0.0684128h-0.4608688c-0.0626373,0-0.1161728-0.0224762-0.1619415-0.0684128
		c-0.0457764-0.0457745-0.0684204-0.0993156-0.0684204-0.1619396v-0.4608822c0-0.0619678,0.022644-0.116169,0.0684204-0.1621056
		c0.0457687-0.0451088,0.0993042-0.0677528,0.1619415-0.0677528h0.4608688c0.0626297,0,0.1163406,0.022644,0.1621094,0.0677528
		c0.0451202,0.0459366,0.0684128,0.1001377,0.0684128,0.1621056v0.4608822
		C99.3771744,19.0602493,99.3538818,19.1144505,99.3087616,19.159565L99.3087616,19.159565z M101.2200165,22.6833115
		c0,0.0626297-0.0231323,0.1163311-0.0684128,0.1621075c-0.0457687,0.0457745-0.0999756,0.0684166-0.1619415,0.0684166h-0.4608688
		c-0.0626297,0-0.1161728-0.0226421-0.1621094-0.0684166c-0.0457764-0.0457764-0.0684128-0.0994778-0.0684128-0.1621075V22.222435
		c0-0.0619678,0.0226364-0.116169,0.0684128-0.1619434c0.0459366-0.0452824,0.0994797-0.0684128,0.1621094-0.0684128h0.4608688
		c0.0619659,0,0.1161728,0.0231304,0.1619415,0.0684128c0.0452805,0.0457745,0.0684128,0.0999756,0.0684128,0.1619434V22.6833115z
		 M101.2200165,20.8404655c0,0.0626297-0.0231323,0.1168308-0.0684128,0.1621075
		c-0.0457687,0.0457745-0.0999756,0.0684128-0.1619415,0.0684128h-0.4608688c-0.0626297,0-0.1161728-0.0226383-0.1621094-0.0684128
		c-0.0457764-0.0459366-0.0684128-0.0994778-0.0684128-0.1621075v-0.4608765c0-0.0619678,0.0226364-0.116169,0.0684128-0.1614494
		c0.0459366-0.0457706,0.0994797-0.068903,0.1621094-0.068903h0.4608688c0.0619659,0,0.1161728,0.0231323,0.1619415,0.068903
		c0.0452805,0.0452805,0.0684128,0.0994816,0.0684128,0.1614494V20.8404655z M101.2200165,18.9976254
		c0,0.062624-0.0231323,0.1168251-0.0684128,0.1619396c-0.0457687,0.0459366-0.0999756,0.0684128-0.1619415,0.0684128h-0.4608688
		c-0.0626297,0-0.1161728-0.0224762-0.1621094-0.0684128c-0.0457764-0.0457745-0.0684128-0.0993156-0.0684128-0.1619396v-0.4608822
		c0-0.0619678,0.0226364-0.116169,0.0684128-0.1621056c0.0459366-0.0451088,0.0994797-0.0677528,0.1621094-0.0677528h0.4608688
		c0.0619659,0,0.1161728,0.022644,0.1619415,0.0677528c0.0452805,0.0459366,0.0684128,0.1001377,0.0684128,0.1621056V18.9976254z
		 M102.8325043,22.9138355h-0.4608688c-0.0626297,0-0.1161728-0.0226421-0.1619415-0.0684166
		c-0.0452805-0.0457764-0.068573-0.0994778-0.068573-0.1621075V22.222435c0-0.0619678,0.0232925-0.116169,0.068573-0.1619434
		c0.0457687-0.0452824,0.0993118-0.0684128,0.1619415-0.0684128h0.4608688c0.0619736,0,0.1161728,0.0231304,0.162117,0.0684128
		c0.0451126,0.0457745,0.0684052,0.0999756,0.0684052,0.1619434v0.4608765c0,0.0626297-0.0232925,0.1163311-0.0684052,0.1621075
		C102.9486771,22.8911934,102.8944778,22.9138355,102.8325043,22.9138355L102.8325043,22.9138355z M102.8325043,22.9138355"/>
	</g>
</g>


<g id="g_svg6">
<path fill="#202639" id="path_svg6" d="M120.9962006,22.7831421l-12.8159103,16.6779785
	c3.9416962,5.0270157,6.8892746,10.8707123,8.5397263,17.23806l19.4502716-10.477562
	C132.7134094,37.3937149,127.5118942,29.4429073,120.9962006,22.7831421z"/>
		<path fill="#FFFFFF" id="ico_svg6"  d="M124.2756042,44.4553833h3.2484818v-2.6978912l-0.6361313-6.7305565h-1.977005l-0.6353455,6.7305565
			V37.852211l-2.9669647,1.5000343V37.852211l-2.9658966,1.5000343V37.852211l-3.0011292,1.5185776v5.0845947H124.2756042z
			 M118.0779037,43.0610161c0,0.350647-0.2844467,0.6350822-0.6350784,0.6350822h-0.7065887
			c-0.3509064,0-0.6353455-0.2844353-0.6353455-0.6350822v-0.7065849c0-0.3506432,0.2844391-0.6353455,0.6353455-0.6353455
			h0.7065887c0.3506317,0,0.6350784,0.2847023,0.6350784,0.6353455V43.0610161z M120.8327255,43.0610161
			c0,0.350647-0.2844315,0.6350822-0.6361389,0.6350822h-0.705513c-0.3517075,0-0.6361465-0.2844353-0.6361465-0.6350822v-0.7065849
			c0-0.3506432,0.2844391-0.6353455,0.6361465-0.6353455h0.705513c0.3517075,0,0.6361389,0.2847023,0.6361389,0.6353455V43.0610161z
			 M122.2448349,43.6960983c-0.3506393,0-0.6350708-0.2844353-0.6350708-0.6350822v-0.7065849
			c0-0.3506432,0.2844315-0.6353455,0.6350708-0.6353455h0.7065811c0.350914,0,0.6353531,0.2847023,0.6353531,0.6353455v0.7065849
			c0,0.350647-0.2844391,0.6350822-0.6353531,0.6350822H122.2448349z M122.2448349,43.6960983"/>
</g>




<g id="g_svg7">


		<path id="path_svg7" fill="#202639" d="M116.9210968,79.6190033h23.6029968c0.2901459-2.5884781,0.4444122-5.2179947,0.4444122-7.8839417
	c0-7.3125381-1.1222992-14.3624802-3.2021027-20.9885292l-20.0597,10.8058548
	c0.3427582,2.2956467,0.5224152,4.6445351,0.5224152,7.0356255
	C118.2291183,72.3880386,117.7681961,76.0785522,116.9210968,79.6190033z"/>

	<path id="ico_svg7" fill="#FFFFFF" d="M129.7802124,74.4514694c1.8441925,0,3.4944458-0.8295822,4.5988159-2.1355515
	c0.8865509-1.0484848,1.4214325-2.4041214,1.4214325-3.8847809c0-3.3248367-2.6952972-6.020237-6.0202484-6.020237
	c-2.0827637,0-3.9184036,1.0577049-4.9992523,2.6652336c-0.6446838,0.9587173-1.0210724,2.1129379-1.0210724,3.3550034
	C123.7599792,71.7560883,126.4552689,74.4514694,129.7802124,74.4514694L129.7802124,74.4514694z M135.2067108,68.9618988
	c0.0025482,0.0023804,0.005188,0.0043869,0.007843,0.0065613c-0.0532379,0.5476303-0.1879272,1.0798645-0.4028168,1.5879288
	c-0.0697174,0.1646957-0.1470947,0.3251572-0.2317657,0.481102c-0.0037384,0.0002747-0.0074615,0.0005569-0.0112,0.001091
	l-1.5727844,0.2341232l-0.6124268,0.0911255l-1.0077515-1.3132401l-0.026535-0.0345306l0.6568909-2.021553l1.5837402-0.5203552
	L135.2067108,68.9618988z M130.0601807,64.5105362l1.9129944-1.0712814
	c0.0032959-0.0018196,0.0063019-0.0038261,0.0093842-0.0059242c0.6191559,0.2731514,1.1770172,0.6550941,1.6587372,1.1367226
	c0.069809,0.0699005,0.1372528,0.1414566,0.2029572,0.2144547c-0.000824,0.0029831-0.0017395,0.0060883-0.0023651,0.0091934
	l-0.4219513,2.1468582l-1.6376953,0.5381393l-1.7220612-1.2511902V64.5105362z M130.9646759,70.4346313l0.9858856,1.284729
	l-0.8513641,2.0022125c-0.0014496,0.0035477-0.0027313,0.0071182-0.0039215,0.0106659
	c-0.427124,0.1056137-0.8669586,0.1593018-1.3150635,0.1593018c-0.4481964,0-0.8879242-0.053688-1.3150635-0.1593018
	c-0.0012817-0.0035477-0.0024719-0.0071182-0.0039215-0.0106659l-0.8513641-2.0022125l0.9858704-1.284729H130.9646759z
	 M125.919136,64.5701447c0.4817276-0.48172,1.0395508-0.8636627,1.6587143-1.1367226
	c0.0031052,0.0020065,0.0062103,0.0040131,0.009407,0.0058327l1.9129868,1.0712814v1.7169724l-1.6263733,1.181572
	l-0.0957031,0.0696182l-1.6376724-0.5381393l-0.1936646-0.9849854l-0.2282944-1.1618729
	c-0.0006256-0.0031052-0.0015335-0.0061111-0.0022583-0.0091934
	C125.7817917,64.7115097,125.8493271,64.6399536,125.919136,64.5701447L125.919136,64.5701447z M124.9804382,71.0374908
	c-0.0846405-0.1559448-0.1620331-0.3164063-0.2316513-0.481102c-0.2148895-0.5080643-0.3496933-1.0402985-0.4029083-1.5879288
	c0.002655-0.0021744,0.0053864-0.0041809,0.0078354-0.0065613l1.6168213-1.4877472l1.5837326,0.5203552l0.6568832,2.021553
	l-1.0342789,1.3477707l-2.1852112-0.3252487C124.9879227,71.0380478,124.9841919,71.0377655,124.9804382,71.0374908
	L124.9804382,71.0374908z M124.9804382,71.0374908"/>
</g>

</svg>
