<?xml version="1.0" encoding="utf-8"?>
<!-- Generator: Adobe Illustrator 18.1.1, SVG Export Plug-In . SVG Version: 6.00 Build 0)  -->
<svg version="1.1" baseProfile="basic" id="Слой_1" xmlns:x="&ns_extend;" xmlns:i="&ns_ai;" xmlns:graph="&ns_graphs;"
	 xmlns="http://www.w3.org/2000/svg" xmlns:xlink="http://www.w3.org/1999/xlink" x="0px" y="0px"
	 viewBox="0 0 132.3333282 78.3333359" xml:space="preserve">
<metadata>
	<sfw  xmlns="&ns_sfw;">
		<slices></slices>
		<sliceSourceBounds  width="128.4951782" height="68.8394623" y="-75.5863953" x="1.9190775" bottomLeftOrigin="true">
			</sliceSourceBounds>
	</sfw>
</metadata>

<g id="g_svg1">
	<path id="path_svg1" fill="#202639" d="M23.4796238,73.5863953c-0.4244995-2.4304199-0.6542358-4.9276733-0.6542358-7.4797974
			c0-2.8955688,0.2861328-5.723877,0.8276367-8.4603271L5.491282,47.8362122
			c-2.3110349,6.6259155-3.5722046,13.7440796-3.5722046,21.1582642c0,1.5453491,0.0661011,3.074646,0.1756593,4.5919189H23.4796238
			z"/>
	<path id="ico_svg1" fill="#FFFFFF" d="M13.171875,59.8154297c0.2182617,0.09375,0.3525391,0.3144531,0.4033203,0.6635742
		c0.0498047,0.3496094,0.015625,0.7016602-0.1025391,1.0566406l-0.375,1.1313477l2.3798828,2.8789063
		c0.0449219,0.0507813,0.0517578,0.1118164,0.0209961,0.1826172L15.125,66.4765625
		c-0.0117188,0.0302734-0.0371094,0.0541992-0.0742188,0.0727539c-0.0126953,0.0063477-0.0249023,0.0097656-0.0351563,0.0126953
		c-0.0522461,0.0136719-0.097168,0.0053711-0.1362305-0.0258789l-2.4956055-1.722168l-0.6035156,1.8188477l0.703125,0.7832031
		c0.0415039,0.0439453,0.0537109,0.1000977,0.034668,0.1630859l-0.2236328,0.6743164
		c-0.0141602,0.0415039-0.0424805,0.0742188-0.0864258,0.0961914l-0.0097656,0.0043945
		c-0.0493164,0.0166016-0.0966797,0.0161133-0.1425781-0.0053711l-1.4741211-0.734375l-1.6210938-0.2929688
		c-0.0454102-0.0043945-0.0839844-0.0302734-0.1147461-0.0771484c-0.0234375-0.0395508-0.0292969-0.0854492-0.0166016-0.1381836
		l0.2216797-0.6782227c0.0136719-0.0424805,0.0429688-0.0742188,0.0864258-0.0957031
		c0.019043-0.0097656,0.0317383-0.0136719,0.0395508-0.0151367l1.03125-0.206543l0.6035156-1.8183594l-3.0288086-0.112793
		c-0.0561523-0.003418-0.1010742-0.0283203-0.1352539-0.0722656c-0.0322266-0.046875-0.0390625-0.0961914-0.0214844-0.1479492
		l0.2988281-0.8979492c0.0224609-0.0629883,0.0634766-0.0991211,0.1210938-0.1083984l3.4824219-0.8149414l0.3730469-1.1230469
		c0.1171875-0.355957,0.3017578-0.6582031,0.550293-0.9086914C12.7006836,59.8564453,12.9404297,59.7592773,13.171875,59.8154297z"
		/>
</g>

<g id="g_svg2">
		<path id="path_svg2" fill="#202639" d="M24.7522507,53.2956848c1.8932819-6.1277428,5.106781-11.6758537,9.3107796-16.3099976
			l-10.979847-15.6482315C16.2489319,27.519453,10.7527618,35.1517372,7.0746098,43.7471352L24.7522507,53.2956848z"/>

			<path id="ico_svg2" fill="#FFFFFF" d="M23.7666016,35.2626953v6.6948242c0,0.090332-0.0332031,0.1689453-0.0996094,0.2353516
		c-0.0664063,0.065918-0.1445313,0.0991211-0.2353516,0.0991211h-6.6943359c-0.0908203,0-0.1694336-0.0332031-0.2353516-0.0991211
		c-0.0664063-0.0664063-0.0996094-0.1450195-0.0996094-0.2353516v-6.6948242c0-0.0908203,0.0332031-0.1689453,0.0996094-0.2353516
		c0.065918-0.0664063,0.1445313-0.0991211,0.2353516-0.0991211h1.6733398V33.421875
		c0-0.1396484,0.0488281-0.2583008,0.1464844-0.355957s0.2163086-0.1464844,0.3554688-0.1464844h2.3432617
		c0.1396484,0,0.2583008,0.0488281,0.355957,0.1464844c0.097168,0.0976563,0.1459961,0.2163086,0.1459961,0.355957v1.5063477
		h1.6738281c0.0908203,0,0.1689453,0.0327148,0.2353516,0.0991211S23.7666016,35.171875,23.7666016,35.2626953z
		 M21.0883789,41.6225586h2.0087891v-6.0249023h-1.3393555v0.1669922c0,0.1396484-0.0488281,0.2583008-0.1459961,0.355957
		c-0.0976563,0.0976563-0.2163086,0.1464844-0.355957,0.1464844h-2.3432617c-0.1391602,0-0.2578125-0.0488281-0.3554688-0.1464844
		s-0.1464844-0.2163086-0.1464844-0.355957v-0.1669922h-1.3388672v6.0249023h2.0083008v-1.1713867
		c0-0.0454102,0.0166016-0.0844727,0.0498047-0.1176758s0.0722656-0.0498047,0.1176758-0.0498047h1.6738281
		c0.0449219,0,0.0844727,0.0166016,0.1176758,0.0498047c0.0327148,0.0332031,0.0493164,0.0722656,0.0493164,0.1176758V41.6225586z
		 M18.4106445,37.1035156v0.3349609c0,0.0454102-0.0166016,0.0844727-0.0498047,0.1176758s-0.0722656,0.0498047-0.1176758,0.0498047
		h-0.3344727c-0.0454102,0-0.0844727-0.0166016-0.1176758-0.0498047s-0.0498047-0.0722656-0.0498047-0.1176758v-0.3349609
		c0-0.0449219,0.0166016-0.0844727,0.0498047-0.1176758c0.0332031-0.0327148,0.0722656-0.0493164,0.1176758-0.0493164h0.3344727
		c0.0454102,0,0.0844727,0.0166016,0.1176758,0.0493164C18.394043,37.019043,18.4106445,37.0585938,18.4106445,37.1035156z
		 M18.4106445,38.4428711v0.3344727c0,0.0454102-0.0166016,0.0844727-0.0498047,0.1176758s-0.0722656,0.0498047-0.1176758,0.0498047
		h-0.3344727c-0.0454102,0-0.0844727-0.0166016-0.1176758-0.0498047s-0.0498047-0.0722656-0.0498047-0.1176758v-0.3344727
		c0-0.0454102,0.0166016-0.0849609,0.0498047-0.1176758c0.0332031-0.0332031,0.0722656-0.0498047,0.1176758-0.0498047h0.3344727
		c0.0454102,0,0.0844727,0.0166016,0.1176758,0.0498047C18.394043,38.3579102,18.4106445,38.3974609,18.4106445,38.4428711z
		 M18.4106445,39.7817383v0.3344727c0,0.0454102-0.0166016,0.0844727-0.0498047,0.1176758s-0.0722656,0.0498047-0.1176758,0.0498047
		h-0.3344727c-0.0454102,0-0.0844727-0.0166016-0.1176758-0.0498047s-0.0498047-0.0722656-0.0498047-0.1176758v-0.3344727
		c0-0.0454102,0.0166016-0.0844727,0.0498047-0.1176758s0.0722656-0.0498047,0.1176758-0.0498047h0.3344727
		c0.0454102,0,0.0844727,0.0166016,0.1176758,0.0498047S18.4106445,39.7363281,18.4106445,39.7817383z M21.0883789,35.4301758
		v-1.6738281c0-0.0454102-0.0166016-0.0844727-0.0493164-0.1176758c-0.0332031-0.0332031-0.0727539-0.0498047-0.1176758-0.0498047
		h-0.3349609c-0.0454102,0-0.0844727,0.0166016-0.1176758,0.0498047s-0.0498047,0.0722656-0.0498047,0.1176758v0.5019531h-0.6694336
		v-0.5019531c0-0.0454102-0.0166016-0.0844727-0.0493164-0.1176758c-0.0332031-0.0332031-0.0727539-0.0498047-0.1176758-0.0498047
		h-0.3349609c-0.0454102,0-0.0844727,0.0166016-0.1176758,0.0498047s-0.0498047,0.0722656-0.0498047,0.1176758v1.6738281
		c0,0.0454102,0.0166016,0.0844727,0.0498047,0.1176758s0.0722656,0.0498047,0.1176758,0.0498047h0.3349609
		c0.0449219,0,0.0844727-0.0166016,0.1176758-0.0498047c0.0327148-0.0332031,0.0493164-0.0722656,0.0493164-0.1176758v-0.5019531
		h0.6694336v0.5019531c0,0.0454102,0.0166016,0.0844727,0.0498047,0.1176758s0.0722656,0.0498047,0.1176758,0.0498047h0.3349609
		c0.0449219,0,0.0844727-0.0166016,0.1176758-0.0498047C21.0717773,35.5146484,21.0883789,35.4755859,21.0883789,35.4301758z
		 M19.7495117,37.1035156v0.3349609c0,0.0454102-0.0166016,0.0844727-0.0493164,0.1176758
		c-0.0332031,0.0332031-0.0727539,0.0498047-0.1176758,0.0498047h-0.3349609c-0.0454102,0-0.0844727-0.0166016-0.1176758-0.0498047
		s-0.0498047-0.0722656-0.0498047-0.1176758v-0.3349609c0-0.0449219,0.0166016-0.0844727,0.0498047-0.1176758
		c0.0332031-0.0327148,0.0722656-0.0493164,0.1176758-0.0493164h0.3349609c0.0449219,0,0.0844727,0.0166016,0.1176758,0.0493164
		C19.7329102,37.019043,19.7495117,37.0585938,19.7495117,37.1035156z M19.7495117,38.4428711v0.3344727
		c0,0.0454102-0.0166016,0.0844727-0.0493164,0.1176758c-0.0332031,0.0332031-0.0727539,0.0498047-0.1176758,0.0498047h-0.3349609
		c-0.0454102,0-0.0844727-0.0166016-0.1176758-0.0498047s-0.0498047-0.0722656-0.0498047-0.1176758v-0.3344727
		c0-0.0454102,0.0166016-0.0849609,0.0498047-0.1176758c0.0332031-0.0332031,0.0722656-0.0498047,0.1176758-0.0498047h0.3349609
		c0.0449219,0,0.0844727,0.0166016,0.1176758,0.0498047C19.7329102,38.3579102,19.7495117,38.3974609,19.7495117,38.4428711z
		 M21.0883789,37.1035156v0.3349609c0,0.0454102-0.0166016,0.0844727-0.0493164,0.1176758
		c-0.0332031,0.0332031-0.0727539,0.0498047-0.1176758,0.0498047h-0.3349609c-0.0454102,0-0.0844727-0.0166016-0.1176758-0.0498047
		s-0.0498047-0.0722656-0.0498047-0.1176758v-0.3349609c0-0.0449219,0.0166016-0.0844727,0.0498047-0.1176758
		c0.0332031-0.0327148,0.0722656-0.0493164,0.1176758-0.0493164h0.3349609c0.0449219,0,0.0844727,0.0166016,0.1176758,0.0493164
		C21.0717773,37.019043,21.0883789,37.0585938,21.0883789,37.1035156z M21.0883789,38.4428711v0.3344727
		c0,0.0454102-0.0166016,0.0844727-0.0493164,0.1176758c-0.0332031,0.0332031-0.0727539,0.0498047-0.1176758,0.0498047h-0.3349609
		c-0.0454102,0-0.0844727-0.0166016-0.1176758-0.0498047s-0.0498047-0.0722656-0.0498047-0.1176758v-0.3344727
		c0-0.0454102,0.0166016-0.0849609,0.0498047-0.1176758c0.0332031-0.0332031,0.0722656-0.0498047,0.1176758-0.0498047h0.3349609
		c0.0449219,0,0.0844727,0.0166016,0.1176758,0.0498047C21.0717773,38.3579102,21.0883789,38.3974609,21.0883789,38.4428711z
		 M22.4272461,37.1035156v0.3349609c0,0.0454102-0.0161133,0.0844727-0.0493164,0.1176758s-0.0727539,0.0498047-0.1176758,0.0498047
		H21.925293c-0.0454102,0-0.0844727-0.0166016-0.1176758-0.0498047s-0.0498047-0.0722656-0.0498047-0.1176758v-0.3349609
		c0-0.0449219,0.0166016-0.0844727,0.0498047-0.1176758c0.0332031-0.0327148,0.0722656-0.0493164,0.1176758-0.0493164h0.3349609
		c0.0449219,0,0.0844727,0.0166016,0.1176758,0.0493164C22.4111328,37.019043,22.4272461,37.0585938,22.4272461,37.1035156z
		 M22.4272461,38.4428711v0.3344727c0,0.0454102-0.0161133,0.0844727-0.0493164,0.1176758s-0.0727539,0.0498047-0.1176758,0.0498047
		H21.925293c-0.0454102,0-0.0844727-0.0166016-0.1176758-0.0498047s-0.0498047-0.0722656-0.0498047-0.1176758v-0.3344727
		c0-0.0454102,0.0166016-0.0849609,0.0498047-0.1176758c0.0332031-0.0332031,0.0722656-0.0498047,0.1176758-0.0498047h0.3349609
		c0.0449219,0,0.0844727,0.0166016,0.1176758,0.0498047C22.4111328,38.3579102,22.4272461,38.3974609,22.4272461,38.4428711z
		 M22.4272461,39.7817383v0.3344727c0,0.0454102-0.0161133,0.0844727-0.0493164,0.1176758s-0.0727539,0.0498047-0.1176758,0.0498047
		H21.925293c-0.0454102,0-0.0844727-0.0166016-0.1176758-0.0498047s-0.0498047-0.0722656-0.0498047-0.1176758v-0.3344727
		c0-0.0454102,0.0166016-0.0844727,0.0498047-0.1176758s0.0722656-0.0498047,0.1176758-0.0498047h0.3349609
		c0.0449219,0,0.0844727,0.0166016,0.1176758,0.0498047S22.4272461,39.7363281,22.4272461,39.7817383z"/>
</g>

<g id="g_svg3">
		<path id="path_svg3" fill="#202639" d="M37.1911278,33.8698883c5.0613441-4.5549278,11.199604-7.9366131,17.9880371-9.7130013
		L51.5824432,6.4103546c-9.3319168,2.1660433-17.8840065,6.3655405-25.1643391,12.1060753L37.1911278,33.8698883z"/>
	<path id="ico_svg3" fill="#FFFFFF" d="M37.3422852,20.0678711h9.0375977c0.0908203,0,0.1694336,0.0332031,0.2353516,0.0991211
		c0.0664063,0.0664063,0.0996094,0.1450195,0.0996094,0.2353516v2.3432617h-1.3388672v-1.3388672h-8.0336914v1.3388672H36.003418
		v-6.3598633c0-0.0908203,0.0332031-0.1689453,0.0996094-0.2353516c0.065918-0.0664063,0.1445313-0.0996094,0.2353516-0.0996094
		h0.6694336c0.090332,0,0.1689453,0.0332031,0.2353516,0.0996094c0.065918,0.0664063,0.0991211,0.1445313,0.0991211,0.2353516
		V20.0678711z M39.9628906,19.3408203c0.2612305-0.2617188,0.3920898-0.5771484,0.3920898-0.9467773
		s-0.1308594-0.6850586-0.3920898-0.9467773c-0.2617188-0.2612305-0.5771484-0.3920898-0.9467773-0.3920898
		s-0.6850586,0.1308594-0.9467773,0.3920898c-0.2617188,0.2617188-0.3920898,0.5771484-0.3920898,0.9467773
		s0.1303711,0.6850586,0.3920898,0.9467773c0.2617188,0.2612305,0.5771484,0.3920898,0.9467773,0.3920898
		S39.7011719,19.6020508,39.9628906,19.3408203z M46.7148438,19.7329102v-0.3344727
		c0-0.5546875-0.1962891-1.027832-0.5883789-1.4199219c-0.3925781-0.3925781-0.8657227-0.5883789-1.4199219-0.5883789h-3.6821289
		c-0.0908203,0-0.1694336,0.0332031-0.2353516,0.0991211c-0.0664063,0.0664063-0.0996094,0.1445313-0.0996094,0.2353516v2.0083008
		H46.7148438z"/>

</g>

<g id="g_svg4">
	<path id="path_svg4" fill="#202639" d="M59.4379807,23.2691803c2.199276-0.343689,4.4528008-0.523632,6.7485275-0.523632
		c3.9780884,0,7.8298492,0.53862,11.4894943,1.5418053l4.478569-17.534462
		c-5.1115036-1.3091383-10.4682388-2.0059566-15.9878464-2.0059566c-3.511692,0-6.9561157,0.286068-10.3148308,0.8281689
		L59.4379807,23.2691803z"/>
	<path id="ico_svg4" fill="#FFFFFF"  d="M72.3168945,10.6826172v5.3554688c0,0.0527344-0.0073242,0.0986328-0.0209961,0.1386719
		c-0.0141602,0.0400391-0.0375977,0.0727539-0.0708008,0.0966797c-0.0332031,0.0244141-0.0620117,0.0444336-0.0859375,0.0605469
		c-0.0244141,0.015625-0.0654297,0.0258789-0.1230469,0.03125s-0.0966797,0.0087891-0.1176758,0.0102539
		c-0.0209961,0.0019531-0.0654297,0.0019531-0.1333008,0c-0.0683594-0.0014648-0.1074219-0.0024414-0.1176758-0.0024414
		c0,0.3696289-0.1308594,0.6850586-0.3925781,0.9467773c-0.2612305,0.2612305-0.5771484,0.3920898-0.9462891,0.3920898
		c-0.3696289,0-0.6855469-0.1308594-0.9467773-0.3920898c-0.2617188-0.2617188-0.3925781-0.5771484-0.3925781-0.9467773h-2.0083008
		c0,0.3696289-0.1303711,0.6850586-0.3920898,0.9467773c-0.2617188,0.2612305-0.5771484,0.3920898-0.9467773,0.3920898
		s-0.6850586-0.1308594-0.9467773-0.3920898c-0.2612305-0.2617188-0.3920898-0.5771484-0.3920898-0.9467773h-0.3344727
		c-0.0107422,0-0.0498047,0.0009766-0.1176758,0.0024414c-0.0683594,0.0019531-0.112793,0.0019531-0.1337891,0
		c-0.0205078-0.0014648-0.0600586-0.0048828-0.1176758-0.0102539c-0.0571289-0.0053711-0.0981445-0.015625-0.1225586-0.03125
		c-0.0244141-0.0161133-0.0532227-0.0361328-0.0864258-0.0605469c-0.0332031-0.0239258-0.0566406-0.0566406-0.0708008-0.0966797
		c-0.0136719-0.0400391-0.0205078-0.0859375-0.0205078-0.1386719c0-0.090332,0.0327148-0.1689453,0.0991211-0.2353516
		c0.0664063-0.065918,0.1445313-0.0991211,0.2353516-0.0991211v-1.6738281c0-0.027832-0.0009766-0.0888672-0.0024414-0.1831055
		c-0.0019531-0.09375-0.0019531-0.1601563,0-0.1987305c0.0014648-0.0380859,0.0058594-0.0981445,0.0126953-0.1801758
		c0.0073242-0.0820313,0.0185547-0.1464844,0.0341797-0.1938477c0.015625-0.046875,0.0400391-0.1000977,0.0732422-0.1591797
		c0.0332031-0.0595703,0.0722656-0.1118164,0.1176758-0.1572266l1.0356445-1.0351563
		c0.065918-0.0664063,0.1542969-0.1220703,0.2641602-0.1674805s0.2119141-0.0678711,0.3056641-0.0678711h0.8369141v-1.0043945
		c0-0.0908203,0.0332031-0.1689453,0.0996094-0.2353516c0.065918-0.0664063,0.1445313-0.0996094,0.2353516-0.0996094h5.3554688
		c0.0908203,0,0.1694336,0.0332031,0.2353516,0.0996094C72.2836914,10.5136719,72.3168945,10.5917969,72.3168945,10.6826172z
		 M64.2832031,13.6953125h2.0083008v-1.3388672H65.465332c-0.0454102,0-0.0839844,0.015625-0.1152344,0.046875l-1.0195313,1.0200195
		c-0.0317383,0.03125-0.0473633,0.0698242-0.0473633,0.1147461V13.6953125z M66.0927734,16.84375
		c0.1328125-0.1323242,0.1987305-0.2895508,0.1987305-0.4707031s-0.065918-0.3383789-0.1987305-0.4707031
		c-0.1323242-0.1323242-0.2895508-0.1987305-0.4707031-0.1987305s-0.3383789,0.0664063-0.4707031,0.1987305
		s-0.1987305,0.2895508-0.1987305,0.4707031s0.0664063,0.3383789,0.1987305,0.4707031s0.2895508,0.1987305,0.4707031,0.1987305
		S65.9604492,16.9760742,66.0927734,16.84375z M70.7792969,16.84375c0.1323242-0.1323242,0.1987305-0.2895508,0.1987305-0.4707031
		s-0.0664063-0.3383789-0.1987305-0.4707031c-0.1328125-0.1323242-0.2895508-0.1987305-0.4707031-0.1987305
		c-0.1816406,0-0.3383789,0.0664063-0.4707031,0.1987305c-0.1328125,0.1323242-0.1987305,0.2895508-0.1987305,0.4707031
		s0.065918,0.3383789,0.1987305,0.4707031c0.1323242,0.1323242,0.2890625,0.1987305,0.4707031,0.1987305
		C70.4897461,17.0424805,70.6464844,16.9760742,70.7792969,16.84375z"/>
</g>

<g id="g_svg5">
	<path id="path_svg5" fill="#202639" d="M97.4130859,36.0299416l11.5114899-14.980442
		c-6.4854584-5.7879181-14.150856-10.2815666-22.5932999-13.0701981l-4.5136795,17.6718903
		C87.7614136,27.9493523,93.0694962,31.5218372,97.4130859,36.0299416z"/>	
	<path id="ico_svg5" fill="#FFFFFF" d="M97.5634766,19.472168v6.6948242c0,0.090332-0.0332031,0.1689453-0.0996094,0.2353516
		c-0.0664063,0.065918-0.1445313,0.0991211-0.2353516,0.0991211h-6.6943359c-0.0908203,0-0.1689453-0.0332031-0.2353516-0.0991211
		c-0.0664063-0.0664063-0.0996094-0.1450195-0.0996094-0.2353516V19.472168c0-0.0908203,0.0332031-0.1689453,0.0996094-0.2353516
		s0.1445313-0.0991211,0.2353516-0.0991211h1.6738281v-1.5063477c0-0.1396484,0.0488281-0.2583008,0.1464844-0.355957
		c0.0966797-0.0976563,0.2158203-0.1464844,0.3554688-0.1464844h2.3427734c0.1396484,0,0.2578125,0.0488281,0.3554688,0.1464844
		s0.1464844,0.2163086,0.1464844,0.355957v1.5063477h1.6738281c0.0908203,0,0.1689453,0.0327148,0.2353516,0.0991211
		S97.5634766,19.3813477,97.5634766,19.472168z M94.8857422,25.8320313h2.0078125v-6.0249023h-1.3388672v0.1669922
		c0,0.1396484-0.0488281,0.2583008-0.1464844,0.355957s-0.2158203,0.1464844-0.3554688,0.1464844h-2.3427734
		c-0.1396484,0-0.2587891-0.0488281-0.3554688-0.1464844c-0.0976563-0.0976563-0.1464844-0.2163086-0.1464844-0.355957v-0.1669922
		h-1.3388672v6.0249023h2.0078125v-1.1713867c0-0.0454102,0.0166016-0.0844727,0.0498047-0.1176758
		s0.0722656-0.0498047,0.1171875-0.0498047h1.6738281c0.0458984,0,0.0849609,0.0166016,0.1181641,0.0498047
		s0.0498047,0.0722656,0.0498047,0.1176758V25.8320313z M92.2080078,21.3129883v0.3349609
		c0,0.0454102-0.0166016,0.0844727-0.0498047,0.1176758s-0.0722656,0.0498047-0.1181641,0.0498047h-0.3349609
		c-0.0449219,0-0.0839844-0.0166016-0.1171875-0.0498047s-0.0498047-0.0722656-0.0498047-0.1176758v-0.3349609
		c0-0.0449219,0.0166016-0.0844727,0.0498047-0.1176758c0.0332031-0.0327148,0.0722656-0.0493164,0.1171875-0.0493164h0.3349609
		c0.0458984,0,0.0849609,0.0166016,0.1181641,0.0493164C92.1914063,21.2285156,92.2080078,21.2680664,92.2080078,21.3129883z
		 M92.2080078,22.6523438v0.3344727c0,0.0454102-0.0166016,0.0844727-0.0498047,0.1176758s-0.0722656,0.0498047-0.1181641,0.0498047
		h-0.3349609c-0.0449219,0-0.0839844-0.0166016-0.1171875-0.0498047s-0.0498047-0.0722656-0.0498047-0.1176758v-0.3344727
		c0-0.0454102,0.0166016-0.0849609,0.0498047-0.1176758c0.0332031-0.0332031,0.0722656-0.0498047,0.1171875-0.0498047h0.3349609
		c0.0458984,0,0.0849609,0.0166016,0.1181641,0.0498047C92.1914063,22.5673828,92.2080078,22.6069336,92.2080078,22.6523438z
		 M92.2080078,23.9912109v0.3344727c0,0.0454102-0.0166016,0.0844727-0.0498047,0.1176758s-0.0722656,0.0498047-0.1181641,0.0498047
		h-0.3349609c-0.0449219,0-0.0839844-0.0166016-0.1171875-0.0498047s-0.0498047-0.0722656-0.0498047-0.1176758v-0.3344727
		c0-0.0454102,0.0166016-0.0844727,0.0498047-0.1176758s0.0722656-0.0498047,0.1171875-0.0498047h0.3349609
		c0.0458984,0,0.0849609,0.0166016,0.1181641,0.0498047S92.2080078,23.9458008,92.2080078,23.9912109z M94.8857422,19.6396484
		v-1.6738281c0-0.0454102-0.0166016-0.0844727-0.0498047-0.1176758s-0.0722656-0.0498047-0.1181641-0.0498047h-0.3339844
		c-0.0458984,0-0.0849609,0.0166016-0.1181641,0.0498047s-0.0498047,0.0722656-0.0498047,0.1176758v0.5019531H93.546875v-0.5019531
		c0-0.0454102-0.0166016-0.0844727-0.0498047-0.1176758s-0.0722656-0.0498047-0.1181641-0.0498047h-0.3349609
		c-0.0449219,0-0.0839844,0.0166016-0.1171875,0.0498047s-0.0498047,0.0722656-0.0498047,0.1176758v1.6738281
		c0,0.0454102,0.0166016,0.0844727,0.0498047,0.1176758s0.0722656,0.0498047,0.1171875,0.0498047h0.3349609
		c0.0458984,0,0.0849609-0.0166016,0.1181641-0.0498047s0.0498047-0.0722656,0.0498047-0.1176758v-0.5019531h0.6689453v0.5019531
		c0,0.0454102,0.0166016,0.0844727,0.0498047,0.1176758s0.0722656,0.0498047,0.1181641,0.0498047h0.3339844
		c0.0458984,0,0.0849609-0.0166016,0.1181641-0.0498047S94.8857422,19.6850586,94.8857422,19.6396484z M93.546875,21.3129883
		v0.3349609c0,0.0454102-0.0166016,0.0844727-0.0498047,0.1176758s-0.0722656,0.0498047-0.1181641,0.0498047h-0.3349609
		c-0.0449219,0-0.0839844-0.0166016-0.1171875-0.0498047s-0.0498047-0.0722656-0.0498047-0.1176758v-0.3349609
		c0-0.0449219,0.0166016-0.0844727,0.0498047-0.1176758c0.0332031-0.0327148,0.0722656-0.0493164,0.1171875-0.0493164h0.3349609
		c0.0458984,0,0.0849609,0.0166016,0.1181641,0.0493164C93.5302734,21.2285156,93.546875,21.2680664,93.546875,21.3129883z
		 M93.546875,22.6523438v0.3344727c0,0.0454102-0.0166016,0.0844727-0.0498047,0.1176758s-0.0722656,0.0498047-0.1181641,0.0498047
		h-0.3349609c-0.0449219,0-0.0839844-0.0166016-0.1171875-0.0498047s-0.0498047-0.0722656-0.0498047-0.1176758v-0.3344727
		c0-0.0454102,0.0166016-0.0849609,0.0498047-0.1176758c0.0332031-0.0332031,0.0722656-0.0498047,0.1171875-0.0498047h0.3349609
		c0.0458984,0,0.0849609,0.0166016,0.1181641,0.0498047C93.5302734,22.5673828,93.546875,22.6069336,93.546875,22.6523438z
		 M94.8857422,21.3129883v0.3349609c0,0.0454102-0.0166016,0.0844727-0.0498047,0.1176758s-0.0722656,0.0498047-0.1181641,0.0498047
		h-0.3339844c-0.0458984,0-0.0849609-0.0166016-0.1181641-0.0498047s-0.0498047-0.0722656-0.0498047-0.1176758v-0.3349609
		c0-0.0449219,0.0166016-0.0844727,0.0498047-0.1176758c0.0332031-0.0327148,0.0722656-0.0493164,0.1181641-0.0493164h0.3339844
		c0.0458984,0,0.0849609,0.0166016,0.1181641,0.0493164C94.8691406,21.2285156,94.8857422,21.2680664,94.8857422,21.3129883z
		 M94.8857422,22.6523438v0.3344727c0,0.0454102-0.0166016,0.0844727-0.0498047,0.1176758s-0.0722656,0.0498047-0.1181641,0.0498047
		h-0.3339844c-0.0458984,0-0.0849609-0.0166016-0.1181641-0.0498047s-0.0498047-0.0722656-0.0498047-0.1176758v-0.3344727
		c0-0.0454102,0.0166016-0.0849609,0.0498047-0.1176758c0.0332031-0.0332031,0.0722656-0.0498047,0.1181641-0.0498047h0.3339844
		c0.0458984,0,0.0849609,0.0166016,0.1181641,0.0498047C94.8691406,22.5673828,94.8857422,22.6069336,94.8857422,22.6523438z
		 M96.2246094,21.3129883v0.3349609c0,0.0454102-0.0166016,0.0844727-0.0498047,0.1176758s-0.0722656,0.0498047-0.1181641,0.0498047
		h-0.3339844c-0.0458984,0-0.0849609-0.0166016-0.1181641-0.0498047s-0.0498047-0.0722656-0.0498047-0.1176758v-0.3349609
		c0-0.0449219,0.0166016-0.0844727,0.0498047-0.1176758c0.0332031-0.0327148,0.0722656-0.0493164,0.1181641-0.0493164h0.3339844
		c0.0458984,0,0.0849609,0.0166016,0.1181641,0.0493164C96.2080078,21.2285156,96.2246094,21.2680664,96.2246094,21.3129883z
		 M96.2246094,22.6523438v0.3344727c0,0.0454102-0.0166016,0.0844727-0.0498047,0.1176758s-0.0722656,0.0498047-0.1181641,0.0498047
		h-0.3339844c-0.0458984,0-0.0849609-0.0166016-0.1181641-0.0498047s-0.0498047-0.0722656-0.0498047-0.1176758v-0.3344727
		c0-0.0454102,0.0166016-0.0849609,0.0498047-0.1176758c0.0332031-0.0332031,0.0722656-0.0498047,0.1181641-0.0498047h0.3339844
		c0.0458984,0,0.0849609,0.0166016,0.1181641,0.0498047C96.2080078,22.5673828,96.2246094,22.6069336,96.2246094,22.6523438z
		 M96.2246094,23.9912109v0.3344727c0,0.0454102-0.0166016,0.0844727-0.0498047,0.1176758s-0.0722656,0.0498047-0.1181641,0.0498047
		h-0.3339844c-0.0458984,0-0.0849609-0.0166016-0.1181641-0.0498047s-0.0498047-0.0722656-0.0498047-0.1176758v-0.3344727
		c0-0.0454102,0.0166016-0.0844727,0.0498047-0.1176758s0.0722656-0.0498047,0.1181641-0.0498047h0.3339844
		c0.0458984,0,0.0849609,0.0166016,0.1181641,0.0498047S96.2246094,23.9458008,96.2246094,23.9912109z"/>
</g>


<g id="g_svg6">
	<path id="path_svg6" fill="#202639" d="M112.0867996,24.0739536L100.3263245,39.378437
		c3.6170807,4.613018,6.3219223,9.9754639,7.8364487,15.8184357l17.8484726-9.6146965
		C122.8390503,37.4812889,118.0658951,30.1852608,112.0867996,24.0739536z"/>
	<path id="ico_svg6" fill="#FFFFFF" d="M113.7451172,35.703125c0.2177734,0.0927734,0.3525391,0.3134766,0.4033203,0.6635742
		c0.0498047,0.3496094,0.015625,0.7016602-0.1025391,1.0571289l-0.375,1.1308594l2.3789063,2.8779297
		c0.0458984,0.0517578,0.0527344,0.1132813,0.0214844,0.1835938l-0.3730469,0.7480469
		c-0.0117188,0.0302734-0.0371094,0.0541992-0.0751953,0.0732422c-0.0126953,0.0058594-0.0234375,0.0097656-0.0341797,0.0112305
		c-0.0517578,0.0136719-0.0966797,0.0058594-0.1357422-0.0258789l-2.4951172-1.7211914l-0.6044922,1.8193359l0.703125,0.7827148
		c0.0419922,0.0439453,0.0537109,0.0991211,0.0351563,0.1635742l-0.2236328,0.6743164
		c-0.0136719,0.0410156-0.0429688,0.0727539-0.0869141,0.0947266l-0.0087891,0.0048828
		c-0.0498047,0.0175781-0.0976563,0.0166016-0.1435547-0.0043945l-1.4736328-0.7348633l-1.6210938-0.2929688
		c-0.0458984-0.0043945-0.0839844-0.03125-0.1152344-0.078125c-0.0234375-0.0385742-0.0292969-0.0844727-0.0166016-0.137207
		l0.2216797-0.6782227c0.0136719-0.0424805,0.0429688-0.0742188,0.0859375-0.0957031
		c0.0195313-0.0097656,0.0322266-0.0136719,0.0400391-0.0151367l1.03125-0.206543l0.6044922-1.8178711l-3.0292969-0.112793
		c-0.0566406-0.0039063-0.1015625-0.0288086-0.1367188-0.0737305c-0.03125-0.0463867-0.0371094-0.0957031-0.0214844-0.1469727
		l0.2988281-0.8989258c0.0234375-0.0620117,0.0644531-0.0981445,0.1220703-0.1074219l3.4824219-0.8144531l0.3720703-1.1240234
		c0.1191406-0.355957,0.3017578-0.6577148,0.5507813-0.9082031
		C113.2744141,35.7441406,113.5146484,35.6469727,113.7451172,35.703125z"/>
</g>




<g id="g_svg7">

	<path id="path_svg7" fill="#202639" d="M108.8927078,73.5863953h21.3455887c0.1096802-1.5172119,0.1759644-3.0465088,0.1759644-4.5919189
		c0-6.7103271-1.0298462-13.1796875-2.9383621-19.2600708l-18.4077148,9.9159546
		c0.3145142,2.1065674,0.4793701,4.262085,0.4793701,6.4562378C109.547554,68.658844,109.3175125,71.1560364,108.8927078,73.5863953
		z"/>
		<path  id="ico_svg7" fill="#FFFFFF" d="M124.0751953,63.1098633v5.3554688c0,0.0527344-0.0068359,0.0986328-0.0205078,0.1386719
		s-0.0371094,0.0727539-0.0703125,0.0966797c-0.0332031,0.0244141-0.0625,0.0444336-0.0869141,0.0605469
		c-0.0244141,0.015625-0.0654297,0.0258789-0.1230469,0.03125c-0.0566406,0.0053711-0.0966797,0.0087891-0.1171875,0.0102539
		c-0.0205078,0.0019531-0.0654297,0.0019531-0.1337891,0c-0.0673828-0.0014648-0.1064453-0.0024414-0.1171875-0.0024414
		c0,0.3696289-0.1308594,0.6850586-0.3925781,0.9467773c-0.2617188,0.2612305-0.5771484,0.3920898-0.9462891,0.3920898
		c-0.3701172,0-0.6855469-0.1308594-0.9472656-0.3920898c-0.2607422-0.2617188-0.3916016-0.5771484-0.3916016-0.9467773h-2.0087891
		c0,0.3696289-0.1308594,0.6850586-0.3925781,0.9467773c-0.2607422,0.2612305-0.5761719,0.3920898-0.9462891,0.3920898
		c-0.3691406,0-0.6845703-0.1308594-0.9462891-0.3920898c-0.2617188-0.2617188-0.3925781-0.5771484-0.3925781-0.9467773h-0.3349609
		c-0.0097656,0-0.0498047,0.0009766-0.1171875,0.0024414c-0.0683594,0.0019531-0.1123047,0.0019531-0.1337891,0
		c-0.0205078-0.0014648-0.0595703-0.0048828-0.1171875-0.0102539s-0.0986328-0.015625-0.1230469-0.03125
		c-0.0244141-0.0161133-0.0537109-0.0361328-0.0869141-0.0605469c-0.0322266-0.0239258-0.0566406-0.0566406-0.0703125-0.0966797
		s-0.0205078-0.0859375-0.0205078-0.1386719c0-0.090332,0.0332031-0.1689453,0.0996094-0.2353516
		c0.0654297-0.065918,0.1445313-0.0991211,0.2353516-0.0991211v-1.6738281c0-0.027832-0.0009766-0.0888672-0.0029297-0.1831055
		c-0.0019531-0.09375-0.0019531-0.1601563,0-0.1987305c0.0019531-0.0380859,0.0058594-0.0981445,0.0126953-0.1801758
		s0.0185547-0.1464844,0.0341797-0.1938477c0.015625-0.046875,0.0400391-0.1000977,0.0732422-0.1591797
		c0.0332031-0.0595703,0.0722656-0.1118164,0.1181641-0.1572266l1.0351563-1.0351563
		c0.0664063-0.0664063,0.1542969-0.1220703,0.2636719-0.1674805c0.1103516-0.0454102,0.2119141-0.0678711,0.3066406-0.0678711
		h0.8369141v-1.0043945c0-0.0908203,0.0332031-0.1689453,0.0986328-0.2353516
		c0.0664063-0.0664063,0.1455078-0.0996094,0.2353516-0.0996094h5.3564453c0.0898438,0,0.1689453,0.0332031,0.2353516,0.0996094
		C124.0419922,62.940918,124.0751953,63.019043,124.0751953,63.1098633z M116.0419922,66.1225586h2.0087891v-1.3388672h-0.8271484
		c-0.0449219,0-0.0830078,0.015625-0.1142578,0.046875l-1.0205078,1.0200195
		c-0.03125,0.03125-0.046875,0.0698242-0.046875,0.1147461V66.1225586z M117.8515625,69.2709961
		c0.1328125-0.1323242,0.1992188-0.2895508,0.1992188-0.4707031s-0.0664063-0.3383789-0.1992188-0.4707031
		s-0.2890625-0.1987305-0.4707031-0.1987305s-0.3378906,0.0664063-0.4707031,0.1987305s-0.1982422,0.2895508-0.1982422,0.4707031
		s0.0654297,0.3383789,0.1982422,0.4707031s0.2890625,0.1987305,0.4707031,0.1987305S117.71875,69.4033203,117.8515625,69.2709961z
		 M122.5380859,69.2709961c0.1318359-0.1323242,0.1982422-0.2895508,0.1982422-0.4707031s-0.0664063-0.3383789-0.1982422-0.4707031
		c-0.1328125-0.1323242-0.2900391-0.1987305-0.4707031-0.1987305c-0.1816406,0-0.3388672,0.0664063-0.4707031,0.1987305
		c-0.1328125,0.1323242-0.1992188,0.2895508-0.1992188,0.4707031s0.0664063,0.3383789,0.1992188,0.4707031
		c0.1318359,0.1323242,0.2890625,0.1987305,0.4707031,0.1987305
		C122.2480469,69.4697266,122.4052734,69.4033203,122.5380859,69.2709961z"/>
</g>

</svg>
